<svg xmlns="http://www.w3.org/2000/svg" xmlns:xlink="http://www.w3.org/1999/xlink" width="64" zoomAndPan="magnify" viewBox="0 0 48 48" height="64" preserveAspectRatio="xMidYMid meet" version="1.0"><defs><clipPath id="fe7d459301"><path d="M 0.488281 0 L 47.507812 0 L 47.507812 47.019531 L 0.488281 47.019531 Z M 0.488281 0 " clip-rule="nonzero"/></clipPath><clipPath id="921947e013"><path d="M 19.324219 30.230469 L 29.921875 30.230469 L 29.921875 37.152344 L 19.324219 37.152344 Z M 19.324219 30.230469 " clip-rule="nonzero"/></clipPath><clipPath id="c1152b192b"><path d="M 21.632812 37.152344 L 27.613281 37.152344 L 29.921875 30.230469 L 19.324219 30.230469 Z M 21.632812 37.152344 " clip-rule="nonzero"/></clipPath><clipPath id="0437ddcf94"><path d="M 16 19 L 27 19 L 27 33 L 16 33 Z M 16 19 " clip-rule="nonzero"/></clipPath><clipPath id="949a8d93d9"><path d="M 16.511719 22.300781 L 23.121094 19.921875 L 26.792969 30.113281 L 20.183594 32.492188 Z M 16.511719 22.300781 " clip-rule="nonzero"/></clipPath><clipPath id="b8f1fcf71d"><path d="M 28.246094 7.003906 L 38.84375 7.003906 L 38.84375 13.925781 L 28.246094 13.925781 Z M 28.246094 7.003906 " clip-rule="nonzero"/></clipPath><clipPath id="dd7eaf9998"><path d="M 36.539062 7.003906 L 30.554688 7.003906 L 28.246094 13.925781 L 38.84375 13.925781 Z M 36.539062 7.003906 " clip-rule="nonzero"/></clipPath><clipPath id="634a5cfa02"><path d="M 22 11 L 36 11 L 36 33 L 22 33 Z M 22 11 " clip-rule="nonzero"/></clipPath><clipPath id="eae2ce9354"><path d="M 29.269531 11.023438 L 35.902344 13.355469 L 29.257812 32.238281 L 22.628906 29.90625 Z M 29.269531 11.023438 " clip-rule="nonzero"/></clipPath><clipPath id="458eadafd5"><path d="M 31.160156 12.890625 L 41.117188 12.890625 L 41.117188 20.855469 L 31.160156 20.855469 Z M 31.160156 12.890625 " clip-rule="nonzero"/></clipPath><clipPath id="9abfea482c"><path d="M 38.460938 12.890625 L 31.160156 12.890625 L 33.816406 20.855469 L 41.117188 20.855469 Z M 38.460938 12.890625 " clip-rule="nonzero"/></clipPath><clipPath id="dff3730927"><path d="M 34.257812 22.226562 L 44.214844 22.226562 L 44.214844 30.191406 L 34.257812 30.191406 Z M 34.257812 22.226562 " clip-rule="nonzero"/></clipPath><clipPath id="bd948b6c06"><path d="M 41.554688 22.226562 L 34.257812 22.226562 L 36.910156 30.191406 L 44.210938 30.191406 Z M 41.554688 22.226562 " clip-rule="nonzero"/></clipPath><clipPath id="1895c66f5d"><path d="M 36.609375 29.472656 L 46.691406 29.472656 L 46.691406 37.4375 L 36.609375 37.4375 Z M 36.609375 29.472656 " clip-rule="nonzero"/></clipPath><clipPath id="d36cc9e60f"><path d="M 44.019531 29.472656 L 36.609375 29.472656 L 39.265625 37.4375 L 46.675781 37.4375 Z M 44.019531 29.472656 " clip-rule="nonzero"/></clipPath><clipPath id="791d1c0387"><path d="M 33.351562 19.46875 L 43.3125 19.46875 L 43.3125 27.433594 L 33.351562 27.433594 Z M 33.351562 19.46875 " clip-rule="nonzero"/></clipPath><clipPath id="da0ed19ba8"><path d="M 40.652344 19.46875 L 33.351562 19.46875 L 36.007812 27.433594 L 43.308594 27.433594 Z M 40.652344 19.46875 " clip-rule="nonzero"/></clipPath><clipPath id="b84851eac2"><path d="M 37.554688 32.039062 L 47.507812 32.039062 L 47.507812 40.003906 L 37.554688 40.003906 Z M 37.554688 32.039062 " clip-rule="nonzero"/></clipPath><clipPath id="8d2506dcd1"><path d="M 44.855469 32.039062 L 37.554688 32.039062 L 40.210938 40.003906 L 47.511719 40.003906 Z M 44.855469 32.039062 " clip-rule="nonzero"/></clipPath><clipPath id="2c1b89e10d"><path d="M 0.488281 26.300781 L 7.519531 26.300781 L 7.519531 40.046875 L 0.488281 40.046875 Z M 0.488281 26.300781 " clip-rule="nonzero"/></clipPath><clipPath id="da37461150"><path d="M 0.488281 6.964844 L 25 6.964844 L 25 26.855469 L 0.488281 26.855469 Z M 0.488281 6.964844 " clip-rule="nonzero"/></clipPath><clipPath id="5f71e02f52"><path d="M 24.394531 20.222656 C 24.742188 19.203125 24.96875 18.042969 24.96875 16.90625 C 24.96875 15.765625 24.773438 14.671875 24.425781 13.664062 C 24.417969 13.640625 24.417969 13.621094 24.40625 13.597656 C 23.019531 9.808594 19.355469 7.019531 15.074219 6.964844 L 0.488281 6.964844 L 0.488281 26.855469 L 15.0625 26.855469 C 19.378906 26.800781 23.039062 24.054688 24.394531 20.222656 Z M 24.394531 20.222656 " clip-rule="nonzero"/></clipPath><clipPath id="9bd4da0fa5"><path d="M 7.375 12.917969 L 18.113281 12.917969 L 18.113281 21.617188 L 7.375 21.617188 Z M 7.375 12.917969 " clip-rule="nonzero"/></clipPath><clipPath id="788c91e5dc"><path d="M 17.832031 18.714844 C 17.984375 18.269531 18.082031 17.761719 18.082031 17.261719 C 18.082031 16.765625 17.996094 16.289062 17.84375 15.847656 C 17.839844 15.835938 17.839844 15.828125 17.835938 15.816406 C 17.230469 14.160156 15.628906 12.941406 13.753906 12.917969 L 7.375 12.917969 L 7.375 21.617188 L 13.75 21.617188 C 15.636719 21.59375 17.238281 20.390625 17.832031 18.714844 Z M 17.832031 18.714844 " clip-rule="nonzero"/></clipPath></defs><g clip-path="url(#fe7d459301)"><path fill="#ffffff" d="M 0.488281 0 L 47.511719 0 L 47.511719 47.019531 L 0.488281 47.019531 Z M 0.488281 0 " fill-opacity="1" fill-rule="nonzero"/><path fill="#ffffff" d="M 0.488281 0 L 47.511719 0 L 47.511719 47.019531 L 0.488281 47.019531 Z M 0.488281 0 " fill-opacity="1" fill-rule="nonzero"/></g><path stroke-linecap="butt" transform="matrix(0.734694, 0, 0, 0.734694, 28.392568, 27.261845)" fill="none" stroke-linejoin="miter" d="M -0.0026444 2.498743 L 14.017864 2.498743 " stroke="#fab631" stroke-width="5" stroke-opacity="1" stroke-miterlimit="4"/><g clip-path="url(#921947e013)"><g clip-path="url(#c1152b192b)"><path fill="#feda5e" d="M 19.324219 30.230469 L 29.921875 30.230469 L 29.921875 37.152344 L 19.324219 37.152344 Z M 19.324219 30.230469 " fill-opacity="1" fill-rule="nonzero"/></g></g><g clip-path="url(#0437ddcf94)"><g clip-path="url(#949a8d93d9)"><path fill="#feda5e" d="M 16.511719 22.300781 L 23.121094 19.921875 L 26.792969 30.117188 L 20.183594 32.5 Z M 16.511719 22.300781 " fill-opacity="1" fill-rule="nonzero"/></g></g><g clip-path="url(#b8f1fcf71d)"><g clip-path="url(#dd7eaf9998)"><path fill="#feda5e" d="M 38.84375 13.925781 L 28.246094 13.925781 L 28.246094 7.003906 L 38.84375 7.003906 Z M 38.84375 13.925781 " fill-opacity="1" fill-rule="nonzero"/></g></g><g clip-path="url(#634a5cfa02)"><g clip-path="url(#eae2ce9354)"><path fill="#feda5e" d="M 29.269531 11.023438 L 35.902344 13.355469 L 29.257812 32.242188 L 22.625 29.910156 Z M 29.269531 11.023438 " fill-opacity="1" fill-rule="nonzero"/></g></g><g clip-path="url(#458eadafd5)"><g clip-path="url(#9abfea482c)"><path fill="#feda5e" d="M 31.160156 12.890625 L 41.117188 12.890625 L 41.117188 20.855469 L 31.160156 20.855469 Z M 31.160156 12.890625 " fill-opacity="1" fill-rule="nonzero"/></g></g><g clip-path="url(#dff3730927)"><g clip-path="url(#bd948b6c06)"><path fill="#feda5e" d="M 34.257812 22.226562 L 44.214844 22.226562 L 44.214844 30.191406 L 34.257812 30.191406 Z M 34.257812 22.226562 " fill-opacity="1" fill-rule="nonzero"/></g></g><g clip-path="url(#1895c66f5d)"><g clip-path="url(#d36cc9e60f)"><path fill="#feda5e" d="M 36.609375 29.472656 L 46.660156 29.472656 L 46.660156 37.4375 L 36.609375 37.4375 Z M 36.609375 29.472656 " fill-opacity="1" fill-rule="nonzero"/></g></g><g clip-path="url(#791d1c0387)"><g clip-path="url(#da0ed19ba8)"><path fill="#feda5e" d="M 33.351562 19.46875 L 43.3125 19.46875 L 43.3125 27.433594 L 33.351562 27.433594 Z M 33.351562 19.46875 " fill-opacity="1" fill-rule="nonzero"/></g></g><g clip-path="url(#b84851eac2)"><g clip-path="url(#8d2506dcd1)"><path fill="#feda5e" d="M 37.554688 32.039062 L 47.511719 32.039062 L 47.511719 40.003906 L 37.554688 40.003906 Z M 37.554688 32.039062 " fill-opacity="1" fill-rule="nonzero"/></g></g><g clip-path="url(#2c1b89e10d)"><path fill="#fab631" d="M 0.488281 26.300781 L 7.519531 26.300781 L 7.519531 40.058594 L 0.488281 40.058594 Z M 0.488281 26.300781 " fill-opacity="1" fill-rule="nonzero"/></g><g clip-path="url(#da37461150)"><g clip-path="url(#5f71e02f52)"><path fill="#fab631" d="M 0.488281 26.855469 L 0.488281 6.964844 L 24.964844 6.964844 L 24.964844 26.855469 Z M 0.488281 26.855469 " fill-opacity="1" fill-rule="nonzero"/></g></g><g clip-path="url(#9bd4da0fa5)"><g clip-path="url(#788c91e5dc)"><path fill="#ffffff" d="M 7.375 21.617188 L 7.375 12.917969 L 18.078125 12.917969 L 18.078125 21.617188 Z M 7.375 21.617188 " fill-opacity="1" fill-rule="nonzero"/></g></g></svg>