<?xml version="1.0" encoding="utf-8"?>
<!-- Generator: Adobe Illustrator 25.3.1, SVG Export Plug-In . SVG Version: 6.00 Build 0)  -->
<svg version="1.1" id="Cambridge_logo" xmlns="http://www.w3.org/2000/svg" xmlns:xlink="http://www.w3.org/1999/xlink" x="0px"
	 y="0px" viewBox="0 0 1413.024 238.848" style="enable-background:new 0 0 1413.024 238.848;" xml:space="preserve">
<style type="text/css">
	.st0{fill:#FFFFFF;}
	.st1{fill:#EF3340;}
	.st2{fill:#FFD100;}
	.st3{fill:#1D1E1C;}
</style>
<path id="Text" d="M1401.352,41.453l0.357,27.744c0,0-3.367,0.849-4.431,1.14c-0.995-12.126-3.742-22.03-23.139-22.03h-26.065V99.59
	h22.374c10.975,0,13.957-6.139,15.199-16.73c0.837,0,3.5,0,4.453,0c0,1.433,0,42.884,0,42.884l-4.441,0.066
	c-0.689-10.256-3.102-18.219-15.12-18.219h-22.466v45.029c0,13.09,11.274,13.09,23.216,13.09c21.423,0,31.353-1.344,37.342-23.02
	c0.872,0.222,4.392,0.977,4.392,0.977l-5.999,28.904c0,0-95.889,0-97.323,0c0-0.949,0-3.841,0-4.8c0.75,0,1.854,0,1.854,0
	c7.468,0,14.37-1.393,14.37-11.58V57.833c0-10.177-6.902-11.588-14.37-11.588c0,0-1.104,0-1.854,0c0-0.949,0-3.826,0-4.793
	C1311.13,41.453,1401.352,41.453,1401.352,41.453 M870.964,41.453c0,0-57.275,0-58.696,0c0,0.967,0,3.839,0,4.793
	c0.895,0,2.589,0,2.589,0c4.834,0,13.817,0,13.817,15.192v95.333c0,8.124-7.443,11.001-13.817,11.001c0,0-1.694,0-2.589,0
	c0,0.964,0,3.851,0,4.8c1.403,0,55.586,0,56.994,0c0-0.949,0-3.836,0-4.8c-0.888,0-2.599,0-2.599,0
	c-9.279,0-15.84-1.143-15.84-15.944v-40.828h14.48l39.015,61.573c0,0,32.187,0,33.564,0c0-0.984,0-4.038,0-4.9
	c-8.851-0.482-13.052-3.548-18.196-11.488l-32.164-48.965l0.847-0.347c11.47-4.647,26.035-14.092,26.035-32.743
	C914.404,52.145,899.993,41.453,870.964,41.453 M863.511,46.794c16.781,0,27.922,11.187,27.922,28.475
	c0,21.306-8.996,30.401-29.407,30.401h-11.203l0.01-58.048C854.556,47.024,859.581,46.794,863.511,46.794z M1000.644,41.427
	c-1.395,0-53.378,0-54.77,0c0,0.964,0,3.836,0,4.795c0.745,0,1.847,0,1.847,0c7.473,0,14.373,1.411,14.373,11.583v98.368
	c0,10.177-6.9,11.577-14.373,11.577c0,0-1.102,0-1.847,0c0,0.959,0,3.844,0,4.795c1.393,0,53.375,0,54.77,0c0-0.951,0-3.836,0-4.795
	c-0.76,0-1.854,0-1.854,0c-7.468,0-14.373-1.4-14.373-11.577V57.805c0-10.172,6.904-11.583,14.373-11.583c0,0,1.094,0,1.854,0
	C1000.644,45.263,1000.644,42.391,1000.644,41.427 M250.533,106.902c0,44.185,26.973,69.138,69.258,69.138
	c20.798,0,39.071-8.152,50.901-23.448l-3.431-6.42c-10.504,13.503-24.42,20.811-43.935,20.811
	c-34.722,0-49.059-30.623-49.059-63.009c0-36.382,17.732-58.976,46.271-58.976c27.777,0,36.003,16.11,40.946,33.709l4.308-0.556
	l-1.388-30.35c-13.669-6.384-27.644-9.417-44.412-9.417c-18.724,0-35.304,6.356-47.934,17.681
	C258.44,68.263,250.533,87.408,250.533,106.902 M533.268,66.804c0,0,46.96,105.602,47.409,106.666c0.727,0,3.237,0,3.956,0
	c0.444-1.048,45.338-108.808,45.338-108.808s3.992,83.82,3.992,83.845l0.189,9.402c0,8.902-6.402,9.272-15.263,9.807
	c0,0-0.207,0.008-0.357,0.023c0,0.992,0,3.683,0,4.734c1.632,0,52.776,0,54.408,0c0-1.048,0-3.711,0-4.734
	c-10.037-0.375-15.373-1.296-16.148-11.47l-5.071-86.967c-1.112-18.533,1.502-23.117,16.248-23.117h0.696l0.008-4.829
	c0,0-35.342,0-36.388,0c-0.444,1.048-42.129,99.384-42.129,99.384s-44.088-98.318-44.532-99.368c-1.056,0-35.5,0-37.112,0
	c0,1.041,0,3.737,0,4.772c0.694,0,1.517,0,1.517,0c10.42,0,16.615,6.418,15.947,17.727l-5.134,82.894
	c-0.691,12.103-1.604,20.387-16.495,20.979h-1.686v4.765h44.198v-4.765h-1.12c-12.047-0.452-17.61-2.023-16.819-19.956
	C528.919,147.782,533.268,66.804,533.268,66.804 M1082.862,172.511c18.183,0,36.143-4.341,48.975-17.054
	c12.748-12.654,20.064-30.445,20.064-48.817c0-19.666-6.65-36.225-19.209-47.922c-12.748-11.866-31.001-17.344-52.788-17.344
	l-58.616,0.051v4.8h1.857c7.463,0,14.368,1.403,14.368,11.58v98.348c0,10.19-6.905,11.585-14.368,11.585h-1.857v4.808
	L1082.862,172.511z M1073.116,47.059c36.877,0,54.813,19.785,54.813,63.238c0,27.958-15.082,56.484-48.21,56.484
	c-14.064,0-19.943-2.245-19.943-16.148l0.01-102.96C1062.926,47.347,1069.867,47.059,1073.116,47.059z M1263.489,165.802
	c-4.907,2.234-13.207,3.461-21.232,3.285c-34.814,0-50.403-32.911-50.403-66.118c0-36.145,18.467-58.604,48.929-58.604
	c22.576,0,32.628,8.838,38.063,31.381l4.397-0.275l-2.086-31.299c-10.134-3.39-26.116-6.484-41.665-6.484
	c-34.714,0-71.607,21.038-71.607,67.212c0,43.41,27.978,71.467,71.253,71.467c17.931,0,34.069-3.056,46.098-6.927l0.02-35.783
	c0-7.032,3.727-10.754,10.774-10.754h1.525v-4.678h-50.401v4.678h1.533c9.687,0,14.802,3.721,14.802,10.754V165.802
	 M742.692,104.645c20.543,0,32.804,11.43,32.804,31.567c0,17.908-12.052,31.054-28.021,31.054c-13.302,0-17.383-3.67-17.383-16.482
	v-46.139H742.692z M741.962,46.261c17.258,0,26.007,8.613,26.007,27.134c0,16.763-9.95,25.522-28.014,25.522h-9.863V46.261H741.962z
	 M756.965,101.161c16.089-2.599,34.365-10.282,34.365-31.052c0-18.765-15.049-28.672-42.379-28.672l-58.208,0.028v4.795h2.594
	c4.816,0,13.807,0,13.807,15.186v95.132c0,8.139-7.448,11.172-13.807,11.172h-2.594v4.749l64.236,0.008
	c24.525,0,43.389-16.487,43.389-37.066c0-8.624-3.017-16.033-8.731-21.874C782.25,106,773.468,102.367,756.965,101.161
	 M438.712,41.43l42.703,113.762c3.166,8.994,7.797,12.539,14.564,12.539h0.398l-0.013,4.836h-50.763l-0.005-4.836h1.15
	c9.871,0,13.738-4.13,10.771-13.225l-10.333-28.82H405.87l-9.524,26.44c-4.181,12.401,2.357,15.47,11.963,15.47h1.735l0.013,4.918
	h-39.905l0.018-4.918h0.446c8.073,0,13.521-4.961,16.607-13.003c0-0.013,41.616-113.18,41.616-113.18L438.712,41.43z
	 M408.196,119.242h36.684l-18.316-51.077L408.196,119.242z"/>
<g id="Shield">
	<path id="Shield_Border" d="M0,0v124.194c0,61.064,32.067,78.492,47.477,86.869c2.83,1.537,50.387,25.177,53.434,26.689
		l2.049,1.095l2.047-1.094c2.752-1.368,50.598-25.148,53.434-26.69c15.411-8.377,47.479-25.805,47.479-86.869V0H0z"/>
	<path id="White_cross" class="st0" d="M123.909,83.598V4.45H82.01v79.148H4.451v40.596l0,0c0,0.439,0.008,0.867,0.01,1.302H82.01
		v97.881c11.18,5.568,20.94,10.42,20.94,10.42c0.002,0,0.01,0.003,0.01,0.003s0.006-0.003,0.008-0.003c0,0,9.76-4.852,20.941-10.418
		v-97.883h77.549c0.004-0.435,0.01-0.863,0.01-1.302V83.598H123.909z"/>
	<g id="Red_quadrants">
		<rect x="4.451" y="4.45" class="st1" width="77.559" height="79.148"/>
		<rect x="123.909" y="4.45" class="st1" width="77.559" height="79.148"/>
		<path class="st1" d="M82.01,125.497H4.46c0.443,56.737,29.537,73.173,45.144,81.655c1.58,0.86,18.148,9.126,32.405,16.226V125.497
			z"/>
		<path class="st1" d="M123.909,125.497v97.883c14.259-7.101,30.825-15.367,32.407-16.228c15.605-8.482,44.701-24.919,45.142-81.655
			H123.909z"/>
	</g>
	<g id="Ermine_tales">
		<g>
			<path d="M151.772,105.365l1.602-1.905l-2.023-2.402l-2.025,2.402l1.604,1.905c0.022,0.959,0.082,9.353-4.865,12.353
				c0,0,1.648,0.316,3.864-0.111c0,0,0.383,2.188,1.422,4.685c1.037-2.496,1.422-4.685,1.422-4.685
				c2.215,0.428,3.864,0.111,3.864,0.111C151.687,114.718,151.747,106.325,151.772,105.365z"/>
			<path d="M164.402,91.108l1.602-1.903l-2.023-2.403l-2.025,2.403l1.604,1.903c0.024,0.96,0.084,9.353-4.865,12.352
				c0,0,1.648,0.317,3.864-0.108c0,0,0.383,2.186,1.422,4.684c1.037-2.498,1.422-4.684,1.422-4.684
				c2.215,0.426,3.864,0.108,3.864,0.108C164.318,100.461,164.38,92.069,164.402,91.108z"/>
			<path d="M177.034,105.365l1.6-1.905l-2.023-2.402l-2.023,2.402l1.602,1.905c0.024,0.959,0.084,9.353-4.865,12.353
				c0,0,1.65,0.316,3.864-0.111c0,0,0.383,2.188,1.422,4.685c1.037-2.496,1.422-4.685,1.422-4.685
				c2.215,0.428,3.864,0.111,3.864,0.111C176.948,114.718,177.008,106.325,177.034,105.365z"/>
			<path d="M189.665,91.108l1.6-1.903l-2.023-2.403l-2.023,2.403l1.602,1.903c0.024,0.96,0.084,9.353-4.865,12.352
				c0,0,1.65,0.317,3.862-0.108c0,0,0.385,2.186,1.424,4.684c1.039-2.498,1.424-4.684,1.424-4.684
				c2.213,0.426,3.862,0.108,3.862,0.108C189.581,100.461,189.641,92.069,189.665,91.108z"/>
			<path d="M139.141,91.108l1.602-1.903l-2.025-2.403l-2.023,2.403l1.602,1.903c0.024,0.96,0.084,9.353-4.865,12.352
				c0,0,1.65,0.317,3.864-0.108c0,0,0.383,2.186,1.422,4.684c1.039-2.498,1.424-4.684,1.424-4.684
				c2.213,0.426,3.864,0.108,3.864,0.108C139.057,100.461,139.117,92.069,139.141,91.108z"/>
		</g>
		<g>
			<path d="M29.714,105.365l1.6-1.905l-2.023-2.402l-2.023,2.402l1.602,1.905c0.024,0.959,0.084,9.353-4.865,12.353
				c0,0,1.65,0.316,3.864-0.111c0,0,0.385,2.188,1.422,4.685c1.038-2.496,1.424-4.685,1.424-4.685
				c2.213,0.428,3.864,0.111,3.864,0.111C29.629,114.718,29.69,106.325,29.714,105.365z"/>
			<path d="M42.344,91.108l1.6-1.903l-2.023-2.403L39.9,89.206l1.602,1.903c0.024,0.96,0.084,9.353-4.867,12.352
				c0,0,1.65,0.317,3.866-0.108c0,0,0.383,2.186,1.42,4.684c1.039-2.498,1.424-4.684,1.424-4.684
				c2.213,0.426,3.864,0.108,3.864,0.108C42.26,100.461,42.32,92.069,42.344,91.108z"/>
			<path d="M54.975,105.365l1.6-1.905l-2.021-2.402l-2.025,2.402l1.604,1.905c0.022,0.959,0.082,9.353-4.865,12.353
				c0,0,1.648,0.316,3.862-0.111c0,0,0.385,2.188,1.424,4.685c1.037-2.496,1.422-4.685,1.422-4.685
				c2.213,0.428,3.864,0.111,3.864,0.111C54.888,114.718,54.952,106.325,54.975,105.365z"/>
			<path d="M67.605,91.108l1.602-1.903l-2.023-2.403l-2.023,2.403l1.602,1.903c0.022,0.96,0.084,9.353-4.865,12.352
				c0,0,1.648,0.317,3.862-0.108c0,0,0.387,2.186,1.424,4.684c1.037-2.498,1.422-4.684,1.422-4.684
				c2.213,0.426,3.864,0.108,3.864,0.108C67.521,100.461,67.583,92.069,67.605,91.108z"/>
			<path d="M17.081,91.108l1.604-1.903l-2.025-2.403l-2.023,2.403l1.602,1.903c0.024,0.96,0.084,9.353-4.865,12.352
				c0,0,1.649,0.317,3.864-0.108c0,0,0.385,2.186,1.422,4.684c1.039-2.498,1.422-4.684,1.422-4.684
				c2.215,0.426,3.863,0.108,3.863,0.108C16.999,100.461,17.059,92.069,17.081,91.108z"/>
		</g>
		<g>
			<path d="M103.381,137.306l1.6-1.903L102.958,133l-2.023,2.403l1.604,1.903c0.022,0.96,0.082,9.351-4.867,12.352
				c0,0,1.65,0.319,3.864-0.109c0,0,0.385,2.187,1.422,4.686c1.037-2.499,1.422-4.686,1.422-4.686
				c2.215,0.428,3.866,0.109,3.866,0.109C103.295,146.657,103.355,138.266,103.381,137.306z"/>
			<path d="M103.381,180.194l1.6-1.905l-2.023-2.403l-2.023,2.403l1.604,1.905c0.022,0.958,0.082,9.353-4.867,12.353
				c0,0,1.65,0.316,3.864-0.111c0,0,0.385,2.187,1.422,4.685c1.037-2.497,1.422-4.685,1.422-4.685
				c2.215,0.428,3.866,0.111,3.866,0.111C103.295,189.546,103.355,181.152,103.381,180.194z"/>
			<g>
				<path d="M115.157,158.749l1.604-1.903l-2.025-2.403l-2.023,2.403l1.602,1.903c0.024,0.96,0.086,9.354-4.865,12.354
					c0,0,1.65,0.316,3.866-0.111c0,0,0.383,2.187,1.42,4.686c1.04-2.499,1.424-4.686,1.424-4.686
					c2.213,0.428,3.862,0.111,3.862,0.111C115.075,168.103,115.135,159.709,115.157,158.749z"/>
				<path d="M91.603,158.749l1.604-1.903l-2.025-2.403l-2.023,2.403l1.602,1.903c0.024,0.96,0.086,9.354-4.865,12.354
					c0,0,1.65,0.316,3.864-0.111c0,0,0.385,2.187,1.422,4.686c1.039-2.499,1.422-4.686,1.422-4.686
					c2.215,0.428,3.864,0.111,3.864,0.111C91.52,168.103,91.581,159.709,91.603,158.749z"/>
			</g>
			<g>
				<path d="M115.157,201.635l1.604-1.903l-2.025-2.403l-2.023,2.403l1.602,1.903c0.024,0.96,0.086,9.354-4.865,12.354
					c0,0,1.65,0.316,3.866-0.111c0,0,0.383,2.187,1.42,4.686c1.04-2.499,1.424-4.686,1.424-4.686
					c2.213,0.428,3.862,0.111,3.862,0.111C115.075,210.988,115.135,202.595,115.157,201.635z"/>
				<path d="M91.603,201.635l1.604-1.903l-2.025-2.403l-2.023,2.403l1.602,1.903c0.024,0.96,0.086,9.354-4.865,12.354
					c0,0,1.65,0.316,3.864-0.111c0,0,0.385,2.187,1.422,4.686c1.039-2.499,1.422-4.686,1.422-4.686
					c2.215,0.428,3.864,0.111,3.864,0.111C91.52,210.988,91.581,202.595,91.603,201.635z"/>
			</g>
		</g>
		<g>
			<path d="M103.381,37.714l1.6-1.905l-2.023-2.403l-2.023,2.403l1.604,1.905c0.022,0.958,0.082,9.352-4.867,12.353
				c0,0,1.65,0.315,3.864-0.11c0,0,0.385,2.187,1.422,4.684c1.037-2.497,1.422-4.684,1.422-4.684c2.215,0.426,3.866,0.11,3.866,0.11
				C103.295,47.065,103.355,38.672,103.381,37.714z"/>
			<g>
				<path d="M115.157,16.27l1.604-1.905l-2.025-2.403l-2.023,2.403l1.602,1.905c0.024,0.958,0.086,9.352-4.865,12.353
					c0,0,1.65,0.316,3.866-0.111c0,0,0.383,2.187,1.42,4.685c1.04-2.498,1.424-4.685,1.424-4.685
					c2.213,0.428,3.862,0.111,3.862,0.111C115.075,25.621,115.135,17.228,115.157,16.27z"/>
				<path d="M91.603,16.27l1.604-1.905l-2.025-2.403l-2.023,2.403l1.602,1.905c0.024,0.958,0.086,9.352-4.865,12.353
					c0,0,1.65,0.316,3.864-0.111c0,0,0.385,2.187,1.422,4.685c1.039-2.498,1.422-4.685,1.422-4.685
					c2.215,0.428,3.864,0.111,3.864,0.111C91.52,25.621,91.581,17.228,91.603,16.27z"/>
			</g>
			<g>
				<path d="M115.157,59.156l1.604-1.904l-2.025-2.403l-2.023,2.403l1.602,1.904c0.024,0.959,0.086,9.352-4.865,12.353
					c0,0,1.65,0.315,3.866-0.11c0,0,0.383,2.188,1.42,4.684c1.04-2.496,1.424-4.684,1.424-4.684c2.213,0.426,3.862,0.11,3.862,0.11
					C115.075,68.508,115.135,60.116,115.157,59.156z"/>
				<path d="M91.603,59.156l1.604-1.904l-2.025-2.403l-2.023,2.403l1.602,1.904c0.024,0.959,0.086,9.352-4.865,12.353
					c0,0,1.65,0.315,3.864-0.11c0,0,0.385,2.188,1.422,4.684c1.039-2.496,1.422-4.684,1.422-4.684
					c2.215,0.426,3.864,0.11,3.864,0.11C91.52,68.508,91.581,60.116,91.603,59.156z"/>
			</g>
		</g>
	</g>
	<g id="Lions_guardant">
		<g id="Lion_bottom_right">
			<path d="M180.89,166.656c1.145,1.516,2.753,2.504,4.077,2.504c0.408,0,1.117-0.104,1.771-0.268c0.36-0.092,0.649-0.13,0.873-0.13
				c0.321,0,0.454,0.12,0.454,0.415c0,0.226-0.155,0.789-0.339,1.232c-0.205,0.495-0.339,0.891-0.392,1.182l-0.26,1.378
				l-0.662,1.182l-0.918,0.855l-0.263,0.268v0.587v0.297c0,1.608-0.475,2.516-1.776,3.387c-0.106,0.064-0.264,0.176-0.46,0.327
				l-0.133,0.533c-0.292,1.216-0.509,1.983-0.656,2.293c-0.165,0.351-0.587,0.965-1.249,1.843c-0.796,1.042-1.314,1.889-1.642,2.694
				c-0.271,0.661-0.476,0.849-0.907,0.849c-0.648,0-1.287-0.811-1.398-1.769c-0.144,0.198-0.255,0.33-0.328,0.397l-0.783,0.523
				l-1.257,0.851c-0.548,0.383-0.902,0.643-1.046,0.787l-0.724,0.727c-0.127,0.128-0.26,0.198-0.378,0.198
				c-0.331,0-0.677-0.563-1.003-1.649l-0.657-2.161c-0.178-0.581-0.266-1.298-0.266-2.125c0-1.09,0.072-1.476,0.463-2.349
				c-1.316,0.138-1.686,0.216-2.365,0.465c-0.204,0.072-0.458,0.128-0.572,0.128c-0.219,0-0.351-0.15-0.351-0.405
				c0-0.144,0.115-0.599,0.26-0.975l0.858-2.231c0.667-1.735,2.803-3.313,4.504-3.313c0.404,0,0.964,0.116,1.678,0.352
				c0.429,0.14,0.771,0.208,0.993,0.208c0.763,0,1.372-0.561,1.372-1.256c0-0.351-0.232-0.727-0.527-0.857
				c-0.108-0.056-0.899-0.294-2.362-0.725c-1.108-0.327-1.655-0.735-2.896-2.173c-0.901-1.042-1.254-1.336-1.582-1.336
				c-0.252,0-0.388,0.164-0.388,0.463l0.062,0.873l0.023,0.407c0,1.825-0.545,3.569-1.862,5.975l-1.843,3.347
				c-0.874,1.592-1.246,2.8-1.246,4.012c0,1.324,0.569,2.496,1.31,2.698l0.99,0.258c0.122,0.038,0.238,0.102,0.327,0.204
				c0.126,0.13,0.203,0.268,0.203,0.377c0,0.14-0.121,0.362-0.332,0.609c-0.117,0.126-0.51,0.637-1.188,1.508
				c-1.134,1.48-1.843,2.013-3.219,2.432c-0.793,1.929-2.091,3.05-4.404,3.815l-0.261,0.455c-0.783,1.382-2.521,2.636-3.63,2.636
				h-0.25c-0.147,1.2-1.005,2.454-2.3,3.355c-0.892,0.619-1.399,0.995-1.51,1.11c-0.08,0.092-0.191,0.288-0.325,0.593
				c-0.297,0.657-0.569,0.927-0.939,0.927c-0.702,0-1.282-0.657-1.689-1.911c-0.27,0.168-0.466,0.3-0.595,0.391
				c-0.742,0.531-1.161,0.815-1.251,0.853c-0.3,0.146-1.071,0.371-2.299,0.661c-1.612,0.377-3.008,1.063-3.355,1.646l-0.59,0.981
				l-0.271,0.114c-0.32,0-0.69-0.451-0.848-1.033c-0.363-1.364-0.594-2.782-0.594-3.691c0-2.335,0.772-3.852,3.161-6.235
				l-0.007-0.567c0-3.627,2.771-6.089,6.845-6.089l0.657,0.018l2.234,0.134l0.209,0.008c1.207,0,2.324-0.461,3.536-1.458
				c1.605-1.314,2.074-2.121,2.074-3.595c0-0.467-0.13-1.001-0.631-2.648c-0.323-1.088-0.484-2.105-0.484-3.091
				c0-2.714,1.991-6.089,4.697-7.954c0.696-0.487,1.214-1.12,1.214-1.49c0-0.152-0.081-0.274-0.184-0.274
				c-0.173,0-0.471,0.18-0.835,0.513c-0.316,0.286-0.847,0.621-1.579,0.991l-1.049,0.523l-1.184,0.465
				c-0.363,0.136-0.546,0.338-0.546,0.585c0,0.146,0.056,0.351,0.153,0.597c0.084,0.214,0.131,0.378,0.131,0.481
				c0,0.146-0.113,0.411-0.333,0.765l-0.915,1.512c-0.902,1.482-1.551,2.115-2.7,2.628c-0.738,2.165-1.796,3.263-3.347,3.489
				c-1.241,2.502-2.338,3.369-4.538,3.611c-0.304,0.965-0.832,1.761-1.97,3.026c-0.47,0.511-0.757,0.865-0.853,1.054
				c-0.515,0.921-0.561,0.983-0.798,0.983c-0.3,0-0.989-0.453-1.507-0.983c-0.235-0.25-0.435-0.511-0.59-0.793l-0.594-1.047
				c-0.191-0.343-0.389-0.495-0.634-0.495l-0.419,0.026l-1.446,0.202c-0.907,0.122-2.199,0.871-2.631,1.512l-0.789,1.186
				c-0.082,0.12-0.196,0.194-0.314,0.194c-0.591,0-0.949-1.296-0.949-3.447c0-1.889,0.289-3.143,0.938-4.046l1.841-2.564
				c0.255-0.356,0.396-0.711,0.396-1.001c0-0.292-0.116-0.589-0.328-0.843c-0.392-0.461-0.764-0.743-1.053-0.791l-1.381-0.188
				c-0.248-0.04-0.35-0.1-0.35-0.206c0-0.118,0.073-0.274,0.215-0.453c0.453-0.571,1.014-1.064,1.644-1.45
				c1.628-0.995,2.699-1.388,3.795-1.388c1.115,0,2.327,0.401,3.439,1.128l1.905,1.246c0.268,0.18,0.585,0.272,0.918,0.272
				c0.881,0,1.546-0.523,2.166-1.714c0.605-1.146,0.868-2.071,0.868-3.047c0-2.472-1.766-4.25-4.214-4.25
				c-1.14,0-2.305,0.445-3.42,1.314c-0.338,0.26-0.559,0.507-0.659,0.723l-0.525,1.186c-0.121,0.282-0.313,0.457-0.471,0.457
				c-0.33,0-1.076-0.949-1.698-2.169c-0.323-0.639-0.639-1.428-0.918-2.37c-0.392-1.284-0.561-2.249-0.561-3.277l0.098-1.781
				c-0.894-1.396-1.189-2.414-1.189-4.07c0-0.601,0.09-1.063,0.466-2.309c-0.551-0.911-0.722-1.598-0.722-2.928l0.062-0.823
				l0.196-0.915l0.132-0.787c-0.633-0.827-0.814-1.386-1.447-4.27c-0.347-1.632-0.567-2.343-0.845-2.764
				c-0.133-0.186-0.202-0.327-0.202-0.395c0-0.383,0.915-0.731,1.967-0.731l0.925,0.072c-0.232-0.609-0.278-0.845-0.278-1.326
				c0-0.811,0.165-1.716,0.476-2.618c0.347-1.004,0.419-1.282,0.419-1.61c0-0.777-0.119-1.57-0.287-2.003l-0.524-1.314
				c-0.119-0.298-0.171-0.503-0.171-0.679c0-0.134,0.088-0.18,0.329-0.18c1.29,0,3.754,1.394,5.687,3.221
				c1.924,1.819,2.55,3.285,2.55,5.991l-0.112,1.44c1.789,1.57,2.571,2.868,2.571,4.274c0,1.03-0.335,1.714-1.324,2.686
				c-1.772,1.764-2.172,2.686-2.172,4.955c0,3.491,1.043,5.376,2.968,5.376c1.695,0,2.998-1.837,3.214-4.535l0.196-2.502
				c0.052-0.649,0.163-1.436,0.328-2.365c0.111-0.593,0.201-1.382,0.201-1.714c0-0.887-0.581-2.005-2.303-4.01
				c-1.843-2.161-2.47-3.321-2.47-5.005c0-2.023,1.397-3.501,3.297-3.501c0.47,0,0.708,0.07,1.275,0.361
				c0.028-1.144,0.08-1.356,0.726-2.964c0.512-1.264,1.058-2.163,1.316-2.163c0.083,0,0.224,0.094,0.391,0.264
				c0.284,0.28,0.572,0.521,0.858,0.717c0.404,0.282,0.618,0.433,0.657,0.463c0.144,0.118,0.341,0.319,0.589,0.595
				c0.409-1.47,0.83-2.167,2.04-3.355c0.92-0.901,1.262-1.182,1.44-1.182c0.14,0,0.307,0.122,0.469,0.329l0.788,1.046l1.114,1.254
				c0.428,0.473,0.582,0.887,0.791,2.033l0.655-0.391l1.048-0.591c0.199-0.108,0.461-0.282,0.796-0.529
				c0.179-0.128,0.327-0.204,0.413-0.204c0.109,0,0.233,0.192,0.308,0.471l0.39,1.51l0.859,1.712
				c0.255,0.509,0.331,0.905,0.331,1.691l-0.002,0.411l0.442-0.014c1.293,0,2.412,1.532,2.412,3.297c0,2.343-1.866,5.37-4.299,6.972
				c-0.224,0.791-0.276,1.11-0.276,1.746c0,5.228,1.375,6.325,9.411,7.523c2.011,0.302,3.814,0.671,5.39,1.116
				c0.262,0.078,1.996,0.645,5.197,1.713c1.776,0.593,2.97,0.855,3.894,0.855c0.977,0,1.52-0.282,1.52-0.797
				c0-0.897-1.317-1.703-5.347-3.281l-5.72-2.233c-5.816-2.275-8.56-5.824-8.56-11.048c0-6.085,4.564-10.651,10.659-10.651
				c2.297,0,4.537,0.477,7.763,1.65c4.151,1.512,4.36,1.576,4.814,1.576c0.801,0,1.241-0.547,1.364-1.706
				c0.104-0.986,0.371-1.386,0.913-1.386c0.806,0,1.683,0.749,2.308,1.977c0.541,1.068,0.853,2.313,0.853,3.411
				c0,2.169-1.14,3.591-3.219,4.012c-1.391,1.821-3.152,2.724-5.295,2.724c-2.619,0-3.917-0.519-8.384-3.311
				c-1.597-1.006-2.28-1.248-3.454-1.248c-1.566,0-2.728,0.971-2.728,2.289c0,1.204,0.973,1.995,3.16,2.576
				c1.303,0.34,1.492,0.439,2.17,1.112c0.529-0.124,0.764-0.16,1.093-0.16c2.136,0,4.768,1.152,6.993,3.056
				c4.054,1.252,7.655,5.62,7.655,9.29c0,4.054-3.513,7.685-7.441,7.685C184.913,167.461,182.798,167.128,180.89,166.656"/>
			<path class="st2" d="M178.521,184.864l0.264-0.723l0.266-0.925c0.05-0.166,0.296-0.541,0.721-1.11
				c0.668-0.879,1.006-1.981,1.006-3.269c0-0.407-0.103-0.783-0.348-1.272c-0.129-0.258-0.2-0.465-0.2-0.609
				c0-0.09,0.049-0.194,0.137-0.306c0.081-0.116,0.176-0.184,0.264-0.196l0.041-0.008c0.168,0,0.453,0.194,0.677,0.462
				c0.28,0.339,0.525,0.529,0.67,0.529c0.297,0,0.608-0.501,0.778-1.248c0.09-0.401,0.132-0.615,0.132-0.659
				c0-0.319-0.266-1.144-0.592-1.841c-0.127-0.264-0.189-0.489-0.189-0.667c0-0.234,0.155-0.425,0.362-0.425
				c0.191,0,0.504,0.204,0.873,0.561c0.181,0.174,0.36,0.266,0.5,0.266c0.411,0,0.708-0.421,1.019-1.448
				c0.191-0.637,0.263-0.922,0.263-1.028c0-0.192-0.083-0.305-0.233-0.305l-0.229,0.018l-0.779,0.082
				c-1.2,0-2.895-0.827-3.691-1.787l-1.841-2.235c-0.709-0.863-1.701-2.173-1.641-2.173l-1.515-0.986
				c-0.245-0.162-0.393-0.361-0.393-0.535c0-0.248,0.248-0.412,0.626-0.412c0.348,0,1.424,0.383,3.386,1.212
				c1.893,0.801,4.874,1.456,6.663,1.456c3.144,0,5.733-2.544,5.733-5.628c0-1.688-0.754-3.247-2.603-5.424
				c-0.346-0.409-0.94-0.807-1.215-0.807c-0.215,0-0.364,0.16-0.364,0.389c0,0.18,0.07,0.435,0.201,0.741
				c0.083,0.206,0.127,0.415,0.127,0.603c0,0.3-0.111,0.475-0.314,0.475c-0.413,0-0.845-0.677-1.197-1.861
				c-0.435-1.468-1.293-2.34-3.292-3.353c-0.76-0.393-1.758-0.741-2.078-0.741c-0.129,0-0.216,0.114-0.216,0.288
				c0,0.248,0.092,0.515,0.26,0.779c0.289,0.443,0.474,0.871,0.53,1.254l0.002,0.06c0,0.256-0.131,0.399-0.367,0.399
				c-0.424,0-0.517-0.11-1.478-1.58c-0.495-0.755-1.818-1.754-2.96-2.235c-0.36-0.154-0.74-0.244-1.118-0.266l-0.038-0.002
				c-0.238,0-0.422,0.114-0.422,0.258c0,0.052,0.103,0.264,0.295,0.603l0.099,0.37c0,0.202-0.135,0.357-0.31,0.357
				c-0.394,0-1.616-1.002-2.58-2.107c-1.044-1.206-1.711-2.734-1.711-3.936c0-2.514,2.402-4.749,5.089-4.749
				c0.678,0,1.252,0.12,1.683,0.337l2.298,1.182l2.699,1.78c1.551,1.015,3.676,1.779,4.961,1.779c0.481,0,0.84-0.066,2.071-0.409
				c0.646-0.174,1.045-0.431,1.045-0.665l-0.026-0.054l-0.228-0.132l-1.447-0.124c-0.804-0.082-2.629-0.903-4.074-1.851
				l-3.025-1.967l-2.694-1.122c-0.204-0.08-0.336-0.214-0.336-0.345c0-0.136,0.14-0.25,0.308-0.25c0.002,0,0.255,0.052,0.747,0.134
				l2.498,0.727c0.631,0.178,1.639,0.641,3.026,1.378c2.741,1.458,4.528,2.103,5.84,2.103c1.52,0,2.637-1.044,2.637-2.46
				c0-0.475-0.106-1.252-0.258-1.879c-0.08-0.306-0.214-0.597-0.398-0.855c-0.115-0.166-0.238-0.258-0.323-0.258
				c-0.189,0-0.297,0.198-0.297,0.535l0.031,0.451l0.026,0.383c0,1.214-0.474,1.641-1.813,1.641c-1.094,0-2.559-0.439-5.905-1.765
				c-3.132-1.232-5.091-1.706-7.037-1.706c-4.951,0-9.286,4.038-9.286,8.642c0,3.976,2.643,7.02,8.041,9.24l5.584,2.299
				c4.623,1.899,6.321,3.263,6.321,5.059c0,1.498-1.396,2.462-3.568,2.462c-0.938,0-2.107-0.258-4.262-0.947
				c-5.231-1.666-8.631-2.357-11.624-2.357c-4.878,0-8.35,1.334-11.121,4.264c-0.368,0.387-0.583,0.505-0.906,0.505
				c-0.222,0-0.448-0.088-0.938-0.375c-0.497-0.29-1.049-0.473-1.443-0.473c-0.481,0-1.228,0.413-1.579,0.869l-0.657,0.853
				c-0.191,0.25-0.406,0.401-0.581,0.401c-0.476,0-1.319-0.811-1.85-1.78c-0.324-0.591-0.545-1.168-0.656-1.711
				c-0.085-0.415-0.136-1.088-0.136-1.803l0.066-1.222l0.199-1.31c0.095-0.631,0.166-1.009,0.199-1.12
				c0.049-0.158,0.176-0.26,0.315-0.26c0.341,0,0.491,0.31,0.491,1.029l-0.018,0.415l-0.013,0.296c0,1.871,0.742,3.585,1.557,3.585
				c0.641,0,1.207-1.15,1.677-3.425c0.095-0.457,0.279-0.721,0.502-0.721c0.263,0,0.421,0.336,0.618,1.316
				c0.121,0.637,0.538,1.52,0.984,2.103c0.255,0.33,0.528,0.529,0.75,0.529c0.538,0,0.884-0.807,1.153-2.698
				c0.109-0.735,0.325-1.192,0.579-1.192c0.107,0,0.207,0.054,0.276,0.142c0.047,0.052,0.199,0.295,0.464,0.723
				c0.159,0.27,0.411,0.491,0.721,0.655c0.327,0.17,0.592,0.264,0.763,0.264c0.208,0,0.429-0.098,0.615-0.264
				c0.294-0.262,0.46-0.461,0.46-0.539c0-0.096-0.134-0.303-0.393-0.579c-0.432-0.463-0.765-1.084-1.182-2.173
				c-0.276-0.721-0.471-1.218-0.589-1.508c-0.103-0.24-0.217-0.398-0.331-0.459l-0.209-0.054l-0.386,0.054
				c-0.074,0.018-0.535,0.15-1.377,0.389l-0.429,0.068c-0.186,0-0.307-0.122-0.307-0.313c0-0.176,0.235-0.495,0.54-0.735
				c1.663-1.324,2.653-3.543,3.023-6.772c0.224-1.963,0.479-2.708,1.313-3.88c0.176-0.244,0.329-0.393,0.412-0.393
				c0.256,0,0.396,0.198,0.396,0.579c0,0.254-0.073,0.571-0.214,0.933c-0.093,0.252-0.143,0.523-0.143,0.797l0.011,0.25l0.132,0.398
				l0.724-0.266l0.785-0.915c0.471-0.545,0.864-1.783,0.864-2.694c0-0.629-0.153-1.07-0.528-1.514c-0.416-0.493-0.704-0.691-1-0.691
				l-0.45,0.032l-0.466,0.034c-0.424,0-0.636-0.128-0.636-0.388l0.113-0.501l0.07-0.723l-0.393-1.64l-0.329-0.793l-0.201-0.657
				l-0.461,0.328l-0.985,0.589c-0.255,0.154-0.522,0.401-0.791,0.725c-0.933,1.134-0.992,1.188-1.367,1.188
				c-0.238,0-0.375-0.086-0.375-0.25l0.036-0.279c0.134-0.603,0.196-1.057,0.196-1.364c0-1.146-0.832-2.874-1.838-3.828
				c-1.373,1.312-2.11,2.758-2.11,4.144v0.789c0,0.3-0.098,0.457-0.299,0.457h-0.023c-0.163-0.024-0.327-0.15-0.464-0.33
				l-0.786-1.049c-0.059-0.08-0.411-0.365-1.056-0.857c-0.121-0.096-0.3-0.248-0.523-0.455l-0.266,0.521
				c-0.649,1.304-0.876,2.085-0.917,3.157c-0.031,0.877-0.103,1.132-0.308,1.132c-0.1,0-0.242-0.048-0.416-0.148
				c-0.997-0.557-1.088-0.595-1.52-0.595c-1.182,0-1.991,0.847-1.991,2.091c0,0.485,0.274,1.222,0.817,2.187
				c0.6,1.073,1.507,2.055,1.9,2.055c0.114,0,0.137-0.078,0.137-0.404l-0.002-0.136l-0.062-1.118l-0.134-0.859l-0.008-0.112
				c0-0.252,0.098-0.367,0.297-0.367c0.594,0,1.115,1.74,1.556,5.214c0.383,3.054,1.226,5.162,2.559,6.379
				c0.339,0.311,0.536,0.565,0.536,0.711c0,0.11-0.116,0.21-0.261,0.21c-0.193,0-0.492-0.118-0.863-0.33
				c-0.24-0.138-0.482-0.21-0.714-0.21c-0.657,0-1.391,0.767-1.522,1.592l-0.593,3.743l-0.46,5.264
				c-0.087,0.996,0.047,2.33,0.394,3.942c0.304,1.418,0.463,2.464,0.463,3.113c0,3.94-2.454,7.058-6.512,8.26l-4.206,1.244
				c-2.622,0.779-3.911,2.506-4.271,5.718c0.673-0.535,0.879-0.619,1.909-0.783l1.243-0.196c0.53-0.088,0.907-0.202,1.12-0.33
				c0.118-0.072,0.36-0.319,0.726-0.727l1.117-1.244c0.422-0.477,0.802-0.745,1.035-0.745c0.155,0,0.282,0.174,0.282,0.379
				c0,0.24-0.163,0.625-0.464,1.087c-0.309,0.485-0.481,1.072-0.481,1.692c0,0.837,0.222,1.37,1.073,2.58
				c0.108-0.399,0.195-0.661,0.265-0.791c0.109-0.208,0.438-0.669,0.986-1.378c0.91-1.178,1.564-2.407,1.574-2.962
				c0.018-1.017,0.108-1.348,0.367-1.348c0.22,0,0.259,0.05,0.36,0.627c0.024,0.142,0.094,0.28,0.197,0.399
				c0.152,0.166,0.3,0.262,0.401,0.262c0.083,0,0.264-0.092,0.523-0.262c0.452-0.305,0.803-0.615,1.047-0.919
				c0.274-0.34,0.491-0.739,0.656-1.184c0.22-0.577,0.337-0.998,0.337-1.244l-0.008-0.849c0-0.226,0.093-0.409,0.217-0.409
				c0.155,0,0.492,0.345,0.706,0.727c0.145,0.255,0.235,0.331,0.421,0.331h0.038c0.238-0.026,0.443-0.122,0.59-0.266
				c0.801-0.783,1.321-1.747,1.321-2.466l-0.069-1.212l-0.262-0.993l-0.012-0.084c0-0.206,0.149-0.379,0.319-0.379
				c0.296,0,0.623,0.423,1.073,1.386c0.209,0.457,0.403,0.665,0.599,0.665c0.313,0,0.559-0.234,1.177-1.128l0.592-0.851
				c0.129-0.188,0.197-0.413,0.197-0.663c0-0.228-0.068-0.457-0.197-0.649l-0.53-0.791c-0.085-0.136-0.131-0.362-0.131-0.659
				c0-0.893,0.324-1.905,0.989-3.087c0.484-0.863,0.771-1.412,0.853-1.646c0.103-0.272,0.217-0.399,0.365-0.399
				c0.114,0,0.224,0.158,0.224,0.33l-0.061,0.727v0.527v0.521c0.087,0.242,0.248,0.337,0.566,0.337c0.201,0,0.43-0.05,0.683-0.134
				l1.641-0.593c0.393-0.14,0.897-0.388,1.512-0.727c2.576-1.426,3.371-1.722,4.641-1.722c0.757,0,1.732,0.294,3.118,0.933
				c0.284,0.132,0.515,0.204,0.677,0.204c0.192,0,0.399-0.122,0.574-0.331c0.13-0.152,0.194-0.338,0.194-0.501
				c0-0.24-0.09-0.523-0.263-0.815c-0.209-0.362-0.402-0.821-0.402-0.981c0-0.178,0.114-0.288,0.303-0.288
				c0.15,0,0.376,0.158,0.495,0.348c0.196,0.314,0.7,1.188,1.51,2.626c1.224,2.179,2.82,3.697,4.21,4.012l2.89,0.661
				c0.895,0.202,1.123,0.549,1.123,1.664c0,2.041-0.967,3.838-2.632,4.905l-2.368,1.518c-0.86,0.545-1.579,2.059-1.579,3.315
				c0,0.813,0.197,2.247,0.46,3.385l0.461-0.457l1.12-0.659l0.988-0.987l0.525-1.448l0.523-1.316
				c0.258-0.635,0.561-1.052,0.765-1.052c0.229,0,0.359,0.359,0.359,1.006l-0.008,0.18l-0.002,0.247
				C177.663,183.031,177.79,183.446,178.521,184.864"/>
			<path class="st2" d="M139.595,203.617c0-3.129,1.135-4.492,5.663-6.79c8.933-4.531,13.751-8.687,13.751-11.843
				c0-0.637-0.208-1.57-0.798-3.541c-0.362-1.214-0.566-2.229-0.566-2.854c0-1.456,1.197-3.661,2.737-5.029l1.247-1.118
				c0.685-0.615,1.194-1.5,1.194-2.075l-0.01-0.296l-0.018-0.391c0-0.649,0.253-0.893,0.935-0.923l0.593-0.06
				c0.299-0.094,0.476-0.136,0.506-0.136c0.212,0,0.419,0.124,0.551,0.331l0.323,0.527l0.461,0.521
				c0.149,0.17,0.305,0.268,0.422,0.268c0.082,0,0.26-0.066,0.501-0.194c0.315-0.176,0.562-0.25,0.796-0.25
				c0.345,0,0.518,0.184,0.518,0.567c0,1.32-0.856,3.229-2.368,5.266c-2.521,3.415-3.35,5.252-3.35,7.439
				c0,1.714,0.491,3.219,1.447,4.46c0.168,0.226,0.265,0.395,0.265,0.485c0,0.176-0.163,0.471-0.461,0.829
				c-0.114,0.138-0.248,0.311-0.398,0.529c-0.524,0.755-0.873,1.054-1.22,1.054c-0.258,0-0.504-0.212-0.619-0.533l-0.262-0.717
				c-0.076-0.204-0.225-0.338-0.371-0.338c-0.051,0-0.162,0.108-0.288,0.272c-0.171,0.218-0.259,0.473-0.259,0.721v1.118
				c0,0.443-0.162,0.905-0.462,1.314c-0.254,0.351-0.561,0.681-0.92,0.983c-0.248,0.216-0.432,0.332-0.517,0.332
				c-0.188,0-0.376-0.21-0.469-0.527l-0.398-1.316c-0.057-0.192-0.189-0.327-0.329-0.327c-0.219,0-0.405,0.37-0.463,0.923
				c-0.134,1.49-0.393,2.394-0.783,2.76l-0.923,0.847c-0.297,0.284-0.644,0.483-0.832,0.483c-0.191,0-0.355-0.084-0.417-0.216
				l-0.462-0.989c-0.055-0.12-0.166-0.202-0.29-0.202c-0.266,0-0.462,0.523-0.561,1.518c-0.237,2.362-0.732,3.427-2.037,4.34
				c-1.023,0.727-1.246,0.965-1.641,1.843c-0.575-0.847-0.796-1.564-0.796-2.624c0-0.545,0.087-0.943,0.27-1.25
				c0.274-0.493,0.425-0.869,0.425-1.092c0-0.162-0.104-0.29-0.235-0.29c-0.06,0-0.178,0.092-0.327,0.258
				c-0.185,0.216-0.473,0.435-0.853,0.661c-1.181,0.681-1.359,0.925-1.643,2.235c-0.379,1.769-1.223,2.588-3.019,2.95
				c-2.226,0.457-2.36,0.513-3.16,1.254L139.595,203.617z"/>
			<path class="st2" d="M135.335,135.825v0.659l0.008,0.973c0,0.348-0.032,0.595-0.141,1.065c-0.211,0.913-0.262,1.228-0.262,1.486
				c0,1.258,0.175,1.879,0.917,3.175c0.412,0.719,0.678,1.584,0.678,2.209c0,0.264-0.107,0.421-0.288,0.421
				c-0.11,0-0.234-0.066-0.32-0.19l-0.525-0.727c-0.421-0.577-0.816-0.729-1.885-0.729l-1.14,0.072
				c0.456,1.122,0.603,1.548,0.788,2.299c0.533,2.147,0.608,2.303,1.777,3.355c1.172,1.06,1.283,1.194,1.283,1.574
				c0,0.298-0.204,0.531-0.453,0.531l-0.437-0.068l-0.258-0.026c-0.357,0-0.686,0.657-0.686,1.39c0,0.421,0.168,1.087,0.42,1.658
				c0.162,0.386,0.321,0.655,0.457,0.793l0.659,0.655c0.169,0.164,0.266,0.411,0.266,0.673c0,0.321-0.185,0.587-0.4,0.587
				c-0.133,0-0.335-0.078-0.591-0.212c-0.165-0.082-0.32-0.13-0.462-0.13c-0.292,0-0.435,0.18-0.435,0.541l0.106,0.977l0.399,1.703
				c0.087,0.385,0.331,0.811,0.72,1.256c0.337,0.381,0.676,0.645,0.987,0.787c0.829,0.359,1.271,0.561,1.318,0.593
				c0.124,0.092,0.194,0.286,0.194,0.525c0,0.246-0.194,0.459-0.438,0.459c-0.072,0-0.3-0.048-0.68-0.132l-0.667-0.064
				c-0.669,0-0.714,0.036-0.714,0.553c0,0.33,0.045,0.677,0.133,1.021l0.263,1.052c0.28,1.112,0.639,1.715,1.035,1.715
				c0.085,0,0.251-0.098,0.476-0.266c0.951-0.729,2.862-1.38,4.062-1.38c1.233,0,2.642,0.15,3.172,0.329
				c0.3,0.104,0.515,0.16,0.629,0.16c0.162,0,0.214-0.162,0.224-0.747l0.135-1.184l0.263-2.039l0.194-1.512v-0.857
				c-0.241,0.196-0.413,0.353-0.531,0.461c-1.117,1.049-1.821,1.378-2.976,1.378c-3.024,0-4.759-3.397-4.759-9.326
				c0-2.446,0.359-5.905,1.035-9.87c0.142-0.833,0.206-1.414,0.206-1.823C139.091,139.464,137.723,137.351,135.335,135.825"/>
			<path class="st2" d="M139.804,150.55l0.591-0.587l0.591-0.529c0.492-0.43,0.885-1.346,0.885-2.021
				c0-0.311-0.065-0.601-0.225-0.935c-0.228-0.493-0.668-0.933-0.933-0.933c-0.224,0-0.425,0.541-0.512,1.39l-0.134,0.987
				l-0.194,0.986l-0.068,0.986V150.55z"/>
			<path class="st2" d="M134.018,177.439c0.675,0.248,0.815,0.361,1.51,1.182c0.912,1.06,1.417,1.312,2.627,1.312
				c0.327,0,0.638-0.042,0.93-0.126l0.848-0.264l0.657-0.202c0.314-0.086,0.527-0.226,0.527-0.332c0-0.138-0.517-0.575-1.314-1.11
				c-0.527-0.359-1.055-0.667-1.576-0.921c-0.569-0.279-1.039-0.409-1.507-0.409C135.795,176.568,134.904,176.855,134.018,177.439"
				/>
			<path class="st2" d="M142.893,195.94c0-2.121,2.087-3.863,4.631-3.863c1.272,0,2.012,0.254,2.012,0.687
				c0,0.337-0.561,0.793-1.777,1.438c-0.119,0.06-0.75,0.407-1.908,1.054c-1.323,0.729-1.732,0.933-2.893,1.444L142.893,195.94z"/>
			<path class="st2" d="M169.649,179.997c0.933-0.19,1.246-0.433,1.708-0.451l1.184,0.06c0.145-0.05,0.411-0.234,0.786-0.527
				c0.211-0.164,0.52-0.38,0.92-0.655c1.316-0.897,1.386-0.957,1.386-1.242c0-0.367-0.533-0.543-1.641-0.543
				C171.922,176.64,170.66,177.612,169.649,179.997"/>
			<path d="M149.794,139.969l0.923,0.593c0.524,0.335,0.963,0.577,1.313,0.719c1.015,0.419,1.383,0.567,1.383,0.957
				c0,0.144-0.042,0.491-0.132,0.749c-0.101,0.296-0.165,0.605-0.196,0.923c-0.093,0.893-0.636,1.12-0.992,1.12
				c-0.443,0-0.907-0.687-1.639-1.973c-0.327-0.585-0.796-1.755-1.049-2.626l-0.039-0.256c0-0.16,0.098-0.254,0.282-0.254
				L149.794,139.969z"/>
			<path d="M158.669,142.26l-1.51,1.52c-0.535,0.711-0.535,1.326-0.656,1.446c-0.101,0.092-0.258,0.166-0.464,0.196l-0.097,0.008
				c-0.383,0-0.67-0.276-0.691-0.663l-0.061-1.118l-0.07-1.121v-0.066c0-0.433,0.237-0.657,0.581-0.729l1.397-0.387l1.44-0.727
				c0.42-0.204,0.55-0.26,0.623-0.26c0.167,0,0.309,0.174,0.309,0.381c0,0.094-0.051,0.236-0.142,0.413L158.669,142.26z"/>
			<path d="M152.031,146.733l0.984,0.729c0.245,0.144,0.551,0.222,0.882,0.222c0.4,0,0.994-0.158,1.551-0.421l0.857-0.391
				c0.197-0.09,0.371-0.14,0.51-0.14c0.528,0,0.941,0.555,0.941,1.254c0,0.971-0.701,1.967-1.717,3.415l-0.718,1.518
				c-0.575,0.821-0.954,1.118-1.424,1.118c-0.781,0-1.159-0.445-2.327-2.768c-0.842-1.66-1.184-2.678-1.184-3.485
				c0-0.695,0.361-1.178,0.881-1.178C151.482,146.606,151.743,146.554,152.031,146.733"/>
			<path class="st2" d="M152.889,150.356l0.065,1.252c0.028,0.565,0.501,1.126,0.955,1.126c0.606,0,1.038-0.917,1.275-2.307
				c0.111-0.637,0.15-0.739,0.15-0.913c0-0.483-0.162-0.615-0.783-0.615l-0.346,0.012h-0.463l-0.295-0.012
				c-0.411,0-0.57,0.322-0.57,1.158L152.889,150.356z"/>
		</g>
		<g id="Lion_bottom_left">
			<path d="M66.51,167.639c0.574,1.448,0.768,2.163,0.853,3.097l0.129,2.756c0.106,2.766,1.021,4.14,2.761,4.14
				c0.631,0,1.153-0.164,1.447-0.459l0.724-0.721l0.288-0.084c0.461,0,0.713,0.3,0.713,0.855l-0.079,1.07
				c-0.052,0.479,0.033,1.498,0.263,3.018c0.134,0.895,0.198,1.781,0.198,2.654c0,1.404-0.1,1.941-0.595,3.203
				c0.458,1.292,0.724,2.75,0.724,3.97c0,1.43-0.234,2.392-0.788,3.197c0.261,1.13,0.328,1.586,0.328,2.233
				c0,0.649-0.09,1.486-0.264,2.502c-0.234,1.368-0.322,2.43-0.265,3.147l0.008,0.17c0,0.415-0.124,0.619-0.379,0.619
				c-0.246,0-0.547-0.194-0.81-0.523c-0.401-0.515-0.659-0.701-0.965-0.701c-0.452,0-0.595,0.24-1.272,2.211
				c-0.206,0.611-0.739,1.434-1.574,2.438c-0.654,0.781-1.062,1.428-1.184,1.907c-0.209,0.787-0.341,1.244-0.393,1.38
				c-0.076,0.174-0.228,0.307-0.399,0.324l-0.083,0.006c-1.084,0-2.323-2.322-3.596-6.706c-0.356-1.242-0.816-1.793-1.486-1.793
				c-0.474,0-0.961,0.316-1.145,0.739l-0.394,0.921c-0.07,0.156-0.204,0.264-0.346,0.264c-0.525,0-1.326-0.959-1.823-2.173
				c-0.409-1.003-0.641-2.093-0.641-3.024c0-2.059,1.517-3.595,6.096-6.181c1.996-1.12,2.766-2.548,2.766-5.121
				c0-2.039-0.613-3.209-2.367-4.541c-1.389-1.049-2.19-1.45-2.929-1.45c-0.623,0-1.115,0.417-1.115,0.943
				c0,0.617,0.36,0.993,1.218,1.29c1.008,0.363,1.45,0.719,1.45,1.174c0,0.417-0.429,1.314-1.122,2.38
				c-0.745,1.138-1.068,1.468-2.104,2.173c-0.313,1.809-1.164,2.964-3.156,4.272c-0.401,1.134-0.623,1.536-1.316,2.432l-1.381,1.779
				c-0.432,0.549-0.914,1.55-0.984,2.037c-0.145,0.999-0.24,1.182-0.624,1.182c-0.522,0-1.594-0.927-2.665-2.299
				c-0.636-0.819-0.789-1.198-0.853-2.173c-0.688,0.541-0.899,0.611-2.236,0.785c-0.801,0.114-1.401,0.262-1.774,0.469
				c-1.013,0.529-1.337,0.673-1.522,0.673c-0.273,0-0.365-0.144-0.386-0.609l-0.067-1.452c0-1.983,0.783-4.302,1.975-5.847
				c-1.151-0.999-2.3-1.606-3.221-1.711c-0.391-0.042-0.492-0.092-0.492-0.234c0-0.242,0.256-0.757,0.621-1.214
				c0.491-0.619,0.886-1.057,1.184-1.312c0.933-0.797,2.547-1.382,3.813-1.382c0.855,0,2.114,0.314,3.746,0.923
				c0.585,0.222,1.115,0.327,1.569,0.327c0.724,0,1.133-0.469,1.133-1.296c0-1.194-0.587-3.063-1.916-6.069
				c-0.895-2.033-1.298-3.397-1.298-4.336c0-2.279,1.076-4.645,2.42-5.322c-0.636-0.321-0.917-0.401-1.465-0.401
				c-0.657,0-1.177,0.168-2.022,0.663c-0.974,0.567-1.515,1.068-1.515,1.402c0,0.128,0.202,0.332,0.533,0.571
				c0.512,0.357,0.597,0.489,0.597,0.972c0,1.622-1.344,3.794-3.226,5.207c-0.413,2.301-1.476,3.693-3.552,4.667
				c-0.271,1.252-0.443,1.614-1.445,3.026c-1.716,2.407-2.118,3.173-2.43,4.535c-0.163,0.705-0.323,0.999-0.543,0.999
				c-0.279,0-0.858-0.439-1.494-1.132c-0.554-0.603-0.9-1.015-1.053-1.258c-0.281-0.431-0.424-0.851-0.721-2.097
				c-0.479,0.134-0.605,0.158-0.941,0.158l-0.966-0.026l-0.657-0.018c-1.44,0-2.967,0.327-3.749,0.803
				c-0.284,0.176-0.479,0.264-0.572,0.264c-0.424,0-0.768-0.891-0.768-1.993c0-2.371,0.657-4.336,2.196-6.483
				c-0.565-0.471-0.75-0.649-1.252-1.182c-0.217-0.242-0.394-0.396-0.525-0.465l-0.722-0.395c-0.25-0.132-0.397-0.298-0.397-0.429
				c0-0.348,0.962-1.266,2.104-2.003c1.264-0.815,2.265-1.186,3.184-1.186c1.077,0,1.651,0.276,2.995,1.448
				c0.933,0.815,1.569,1.186,2.022,1.186c0.319,0,0.667-0.22,0.935-0.597c0.22-0.303,0.339-0.639,0.339-0.978
				c0-1.258-1.502-3.379-3.165-4.476c-1.239-0.813-2.596-1.25-3.917-1.25c-1.831,0-3.402,0.911-4.101,2.37l-0.726,1.512
				c-0.17,0.353-0.383,0.535-0.625,0.535c-0.422,0-0.644-0.19-2.136-1.915l-1.706-1.977c-0.528-0.605-0.882-1.188-1.055-1.703
				c-0.155-0.487-0.264-0.779-0.329-0.855c-0.059-0.088-0.284-0.264-0.654-0.531c-1.318-0.933-2.28-2.782-2.83-5.452
				c-0.042-0.192-0.104-0.481-0.197-0.853c-1.61-1.975-2.57-4.418-2.57-6.538c0-0.282,0.016-0.409,0.143-0.897
				c-0.939-0.943-1.045-1.168-1.779-3.685c-0.526-1.787-0.859-2.548-1.513-3.409c-0.173-0.232-0.263-0.411-0.263-0.511
				c0-0.355,0.551-0.649,1.512-0.807c0.899-0.148,0.956-0.152,1.321-0.152l1.311,0.088l-0.083-1.801
				c0-1.058,0.083-1.745,0.347-2.998c0.126-0.627,0.195-1.084,0.195-1.372c0-0.116-0.044-0.497-0.134-1.13
				c-0.069-0.485-0.132-0.817-0.194-0.983c-0.097-0.246-0.141-0.435-0.141-0.557c0-0.214,0.141-0.326,0.393-0.326
				c0.188,0,0.458,0.092,0.866,0.288c1.143,0.563,2.089,1.138,2.823,1.711c2.266,1.777,4.049,4.506,4.049,6.199l-0.034,0.515
				c-0.091,0.585-0.135,0.911-0.135,0.962c0,0.288,0.163,0.665,0.461,1.065l0.724,0.991c0.641,0.873,1.057,1.895,1.057,2.578
				c0,0.615-0.129,0.885-1.187,2.42c-0.796,1.148-1.125,2.003-1.125,2.94c0,1.186,0.473,2.68,1.321,4.16
				c0.773,1.362,1.667,2.111,2.526,2.111c1.468,0,2.105-1.298,2.336-4.811c0.119-1.827,0.298-3.471,0.529-4.991l0.066-0.899
				c0-0.411-0.126-0.649-0.656-1.28l-1.978-2.293c-1.88-2.195-2.446-3.325-2.446-4.903c0-1.807,1.187-3.058,2.908-3.058l0.788,0.072
				l-0.008-0.513c0-0.419,0.112-1.015,0.337-1.787c0.412-1.412,0.933-2.496,1.205-2.496c0.088,0,0.305,0.106,0.636,0.329
				c0.103,0.064,0.502,0.22,1.187,0.457c0.367,0.134,0.626,0.264,1.308,0.653c0.319-1.128,0.554-1.65,1.056-2.297
				c0.848-1.096,1.813-1.971,2.153-1.971c0.204,0,0.587,0.28,1.064,0.789l1.252,1.318c0.206,0.212,0.453,0.641,0.724,1.246
				l0.263,0.589c0.349-0.2,0.61-0.353,0.788-0.455c0.51-0.308,0.866-0.507,1.051-0.593c0.801-0.38,1.218-0.577,1.251-0.593
				c0.338-0.22,0.574-0.339,0.675-0.339c0.219,0,0.344,0.395,0.835,2.572c0.336,1.49,0.383,1.807,0.463,2.896
				c2.099,0.294,3.087,1.498,3.087,3.751c0,2.121-1.04,4.226-3.284,6.626c-0.613,0.661-0.76,0.972-0.76,1.586
				c0,5.81,2.023,7.647,9.308,8.414c4.47,0.469,5.798,0.753,11.171,2.37c2.828,0.843,4.451,1.196,5.499,1.196
				c1.238,0,1.936-0.453,1.936-1.252c0-1.22-0.881-1.602-6.117-2.71c-12.18-2.564-16.965-6.724-16.965-14.759
				c0-5.728,4.284-10.027,10.002-10.027c2.521,0,4.775,0.769,8.34,2.824c3.307,1.919,3.992,2.245,4.749,2.245
				c0.884,0,1.234-0.567,1.234-1.991c0-0.919,0.279-1.37,0.853-1.37c0.524,0,1.323,0.543,2.039,1.382
				c1.091,1.292,1.512,1.951,1.512,3.733c0,2.38-1.267,3.934-3.746,4.621c-0.266,0.29-0.463,0.503-0.59,0.653
				c-1.352,1.528-2.544,2.037-4.697,2.037c-1.87,0-4.219-0.763-5.827-1.907l-3.155-2.231c-1.362-0.967-2.357-1.378-3.311-1.378
				c-1.345,0-2.148,0.803-2.148,2.151c0,1.322,0.873,2.397,2.303,2.84l2.962,0.923c1.047,0.331,1.546,0.533,2.823,1.182
				c0.732-0.106,1.068-0.14,1.474-0.14c1.838,0,3.821,0.495,5.558,1.384c0.553,0.284,0.951,0.465,1.184,0.533l1.647,0.461
				c3.732,1.046,6.775,5.22,6.775,9.298c0,4.651-3.014,7.533-7.884,7.533L66.51,167.639z"/>
			<path class="st2" d="M65.39,206.692l0.393-0.793l0.923-0.987c0.777-0.831,1.196-2.013,1.196-3.397
				c0-0.677-0.118-1.408-0.343-2.125c-0.166-0.525-0.273-0.973-0.273-1.16c0-0.417,0.311-0.809,0.629-0.809
				c0.131,0,0.309,0.116,0.496,0.331l0.984,1.113c0.613,0.691,0.817,0.819,1.58,0.988l0.067-0.919l0.065-1.079
				c0-1.57-0.575-3.333-1.448-4.445c-0.522-0.665-0.76-1.076-0.76-1.308c0-0.242,0.173-0.467,0.356-0.467
				c0.065,0,0.16,0.05,0.271,0.132c0.634,0.473,0.962,0.667,1.135,0.667c0.319,0,0.605-0.793,0.605-1.66
				c0-1.246-0.522-2.68-1.341-3.673c-0.422-0.509-0.686-0.835-0.788-0.983c-0.091-0.126-0.132-0.25-0.132-0.377
				c0-0.282,0.23-0.483,0.569-0.483c0.248,0,0.401,0.064,0.811,0.33c0.194,0.126,0.372,0.196,0.505,0.196
				c0.512,0,0.697-0.721,0.697-2.674l-0.02-0.809l-0.067-1.186c-0.075-1.39-0.197-1.636-0.786-1.636h-0.525
				c-3.208,0-4.7-2.031-5.527-7.501c-0.595-3.952-2.071-6.76-3.878-7.365c-1.08-0.359-1.468-0.595-1.468-0.881
				c0-0.182,0.299-0.362,0.625-0.362c0.235,0,0.791,0.146,1.241,0.33c2.619,1.057,4.832,1.576,6.756,1.576
				c3.149,0,5.633-2.317,5.633-5.258c0-2.245-1.069-4.531-2.991-6.377c-0.523-0.513-1.092-0.845-1.642-0.987l-0.126-0.01
				l-0.333,0.11l0.135,0.949l0.258,0.663l0.072,0.274c0,0.14-0.135,0.25-0.311,0.25c-0.193,0-0.373-0.1-0.484-0.266l-1.182-1.777
				c-0.938-1.402-2.993-2.574-4.516-2.574c-0.541,0-0.882,0.24-0.882,0.623c0,0.186,0.179,0.525,0.401,0.769
				c0.334,0.381,0.598,0.835,0.598,1.049l-0.073,0.265c-0.069,0.148-0.165,0.25-0.262,0.262l-0.065,0.006
				c-0.318,0-0.474-0.144-1.906-1.777c-1.171-1.34-3.562-2.642-4.845-2.642c-0.183,0-0.353,0.08-0.483,0.208
				c-0.08,0.086-0.132,0.182-0.132,0.252c0,0.202,0.173,0.463,0.463,0.733c0.407,0.375,0.731,0.817,0.731,1.008
				c0,0.13-0.172,0.246-0.37,0.246c-0.375,0-1.22-0.545-2.794-1.781c-2.454-1.925-3.547-3.746-3.547-5.852
				c0-2.544,1.813-4.537,4.139-4.537c1.362,0,3.17,0.655,4.405,1.582l3.222,2.428c1.473,1.121,3.281,1.714,5.173,1.714
				c0.412,0,0.799-0.092,1.138-0.266c0.287-0.144,0.463-0.316,0.463-0.441c0-0.078-0.245-0.194-0.595-0.284
				c-1.163-0.276-2.099-0.679-2.761-1.182l-3.286-2.494c-1.22-0.927-2.073-1.52-2.567-1.777c-1.732-0.911-2.071-1.126-2.071-1.326
				c0-0.102,0.165-0.188,0.377-0.188c0.176,0,0.374,0.044,0.577,0.132l1.712,0.727c0.549,0.228,1.471,0.779,2.761,1.642
				c3.519,2.351,5.308,3.105,7.374,3.105c1.965,0,3.415-1.394,3.415-3.289c0-0.372-0.095-0.785-0.274-1.136l-0.328-0.653
				c-0.115-0.234-0.328-0.411-0.393-0.33l-0.196,0.262l-0.196,1.384c-0.008,0.052-0.078,0.212-0.201,0.461
				c-0.124,0.258-0.279,0.483-0.456,0.655c-0.359,0.351-0.657,0.465-1.208,0.465c-1.016,0-2.158-0.545-5.235-2.505
				c-3.113-1.981-5.923-3.016-8.151-3.016c-4.731,0-8.546,3.81-8.546,8.528c0,6.581,4.015,9.556,16.627,12.306
				c4.799,1.043,6.906,2.45,6.906,4.583c0,1.949-1.572,3.175-4.072,3.175c-0.755,0-1.35-0.044-1.779-0.13
				c-0.425-0.088-2.682-0.701-6.774-1.847c-2.82-0.781-5.983-1.224-8.774-1.224c-4.948,0-8.281,1.47-10.55,4.647
				c-0.264,0.377-0.525,0.597-0.699,0.597c-0.134,0-0.331-0.092-0.551-0.266l-0.917-0.725c-0.649-0.507-1.674-0.899-2.36-0.899
				c-0.499,0-0.972,0.198-1.391,0.575c-0.325,0.296-0.569,0.455-0.669,0.455c-0.37,0-1.045-0.825-1.561-1.903
				c-0.738-1.54-1.123-3.072-1.123-4.474c0-0.657,0.207-1.114,0.497-1.114c0.227,0,0.401,0.174,0.494,0.523l0.525,1.907
				c0.295,1.068,0.889,1.907,1.342,1.907c0.201,0,0.556-0.289,0.956-0.787c0.245-0.3,0.421-0.613,0.53-0.923
				c0.412-1.204,0.512-1.378,0.835-1.378c0.385,0,0.582,0.236,0.84,1.44c0.052,0.222,0.124,0.555,0.43,1.128
				c0.266,0.497,0.532,0.899,0.788,1.182c0.196,0.214,0.445,0.337,0.68,0.337c0.577,0,1.109-0.965,1.109-2.029l-0.012-0.28
				l-0.08-1.22c0-0.473,0.074-0.615,0.339-0.615c0.155,0,0.273,0.082,0.46,0.32c0.282,0.363,0.662,0.677,1.12,0.919
				c0.401,0.218,0.721,0.33,0.935,0.33c0.191,0,0.419-0.122,0.639-0.33c0.178-0.166,0.276-0.353,0.276-0.515
				c0-0.194-0.235-0.493-0.933-1.192c-0.372-0.379-0.822-1.278-1.315-2.626c-0.184-0.517-0.433-0.867-0.619-0.867
				c-0.051,0-0.201,0.048-0.432,0.14l-0.853,0.324l-0.592,0.262l-0.224,0.048c-0.28,0-0.505-0.2-0.505-0.451
				c0-0.254,0.597-0.961,1.321-1.562c0.52-0.437,0.833-1.084,0.853-1.775c0.042-1.106,0.246-1.977,0.46-1.977l0.199-2.299
				c0.093-1.154,0.572-3.335,0.986-4.531c0.08-0.242,0.186-0.404,0.263-0.404c0.183,0,0.348,0.497,0.348,1.044l-0.02,0.34
				l-0.038,0.665c0,0.833,0.134,1.264,0.393,1.264c0.287,0,0.61-0.415,0.897-1.14l0.589-1.51c0.173-0.447,0.264-0.861,0.264-1.228
				c0-1.278-0.766-2.207-1.829-2.207l-0.476,0.082c-0.252,0.088-0.411,0.132-0.465,0.132c-0.346,0-0.637-0.381-0.637-0.827
				l0.05-0.947l-0.062-1.316l-0.264-1.378l-0.069-0.661l-0.59,0.327l-0.726,0.593l-1.047,0.851l-0.856,0.725
				c-0.151,0.13-0.322,0.202-0.488,0.202c-0.502,0-0.564-0.136-0.564-1.16v-0.256c0-0.829-0.36-1.476-1.706-3.056
				c-0.077-0.092-0.186-0.216-0.333-0.395l-0.258,0.463l-0.724,1.182l-0.723,1.839l-0.135,1.182
				c-0.033,0.339-0.165,0.603-0.296,0.603c-0.135,0-0.363-0.172-0.619-0.471c-1.004-1.15-1.323-1.358-2.828-1.903l-0.129,0.457
				c-0.24,0.779-0.372,1.24-0.395,1.386l-0.07,1.246v0.525l0.006,0.419c0,0.362-0.134,0.577-0.356,0.577l-0.042-0.01
				c-0.023-0.008-0.155-0.122-0.394-0.327c-0.151-0.138-0.432-0.204-0.796-0.204c-1.222,0-2.003,0.663-2.003,1.715
				c0,0.787,0.268,1.374,1.481,3.219c0.538,0.819,1.159,1.462,1.404,1.462c0.162,0,0.297-0.433,0.297-0.935l-0.121-0.791
				c-0.125-0.377-0.187-0.719-0.187-1.005c0-0.365,0.106-0.567,0.308-0.567c0.592,0,1.202,1.705,1.458,4.076l0.258,2.432
				c0.098,0.865,0.365,1.752,0.791,2.63c0.6,1.226,1.187,2.061,1.708,2.429c0.631,0.443,1.019,0.879,1.019,1.122
				c0,0.204-0.167,0.395-0.347,0.395c-0.02,0-0.468-0.16-1.329-0.467l-0.553-0.078c-1.313,0-1.753,0.751-1.753,3.01
				c0,2.736,1.844,6.67,3.886,8.312l3.021,2.436c1.536,1.228,2.697,3.275,2.697,4.735c0,1.923-2.107,3.812-5.718,5.125l-2.171,0.783
				c-1.683,0.615-2.362,1.703-3.023,4.865c0.859-0.264,1.237-0.332,1.812-0.332l0.292,0.008l0.976,0.02
				c0.882,0,1.521-0.531,1.521-1.27v-0.593c0-0.178,0.245-0.421,0.592-0.595c0.589-0.286,0.897-0.437,0.917-0.459l0.727-0.591
				c0.113-0.092,0.242-0.148,0.367-0.148c0.196,0,0.36,0.19,0.36,0.409c0,0.162-0.049,0.369-0.134,0.593
				c-0.225,0.581-0.349,1.374-0.349,2.259c0,1.61,0.256,2.478,1.071,3.657c0.075-0.437,0.142-0.719,0.197-0.853
				c0.133-0.332,0.511-0.927,1.119-1.773c0.992-1.392,1.724-3.088,1.724-4.002l-0.02-0.278l-0.195-1.508
				c0-0.274,0.122-0.531,0.329-0.723c0.143-0.124,0.302-0.192,0.45-0.192c0.28,0,0.454,0.166,0.673,0.653
				c0.155,0.367,0.341,0.591,0.468,0.591c0.23,0,0.682-0.603,0.972-1.314c0.219-0.521,0.33-0.991,0.33-1.39
				c0-0.24-0.067-0.529-0.196-0.845c-0.134-0.328-0.209-0.585-0.209-0.747c0-0.168,0.054-0.25,0.274-0.435
				c0.108-0.082,0.219-0.134,0.333-0.134c0.126,0,0.26,0.052,0.39,0.134l0.59,0.395c0.201,0.132,0.379,0.202,0.527,0.202
				c0.266,0,0.641-0.296,0.923-0.731c0.569-0.877,0.93-1.598,0.93-1.871c0-0.176-0.108-0.3-0.473-0.557
				c-1.308-0.923-2.169-2.321-2.169-3.517c0-0.278,0.064-0.593,0.197-0.951l0.656-1.777c0.33-0.893,0.51-1.358,0.525-1.384
				l0.194-0.072c0.224,0,0.36,0.186,0.36,0.507c0,0.216-0.052,0.467-0.155,0.749c-0.16,0.433-0.276,0.955-0.276,1.25
				c0,0.473,0.242,0.727,0.687,0.727c0.325,0,0.7-0.09,1.099-0.262c1.991-0.861,3.562-1.324,4.514-1.324
				c0.895,0,1.45,0.196,2.389,0.859c0.248,0.174,0.458,0.266,0.607,0.266c0.114,0,0.256-0.1,0.381-0.266
				c0.082-0.112,0.132-0.228,0.132-0.326c0-0.238-0.14-0.545-0.396-0.855c-0.338-0.417-0.466-0.673-0.466-0.93
				c0-0.208,0.137-0.338,0.354-0.338c1.032,0,2.647,3.263,4.191,8.434c1.212,4.082,1.55,4.495,5.451,6.708
				c3.302,1.863,4.556,3.709,4.556,6.712c0,2.952-0.817,6.736-2.521,11.693c-0.535,1.568-0.77,2.63-0.77,3.503
				c0,0.695,0.134,1.368,0.646,3.135c0.238,0.843,0.391,1.354,0.458,1.512C64.941,205.899,65.117,206.225,65.39,206.692"/>
			<path class="st2" d="M50.14,197.488c0.391-0.911,0.515-1.126,1.246-2.239c1.066-1.604,1.448-2.455,1.448-3.217v-1.056
				c0-0.989,0.178-1.446,0.572-1.446c0.141,0,0.273,0.072,0.348,0.202l0.331,0.523c0.1,0.168,0.276,0.266,0.462,0.266
				c0.194,0,0.549-0.256,0.742-0.551c0.474-0.719,0.766-1.636,0.766-2.346l-0.068-0.725l-0.064-0.741
				c0-0.399,0.162-0.571,0.54-0.571c0.256,0,0.363,0.102,0.583,0.593c0.139,0.319,0.332,0.527,0.496,0.527
				c0.18,0,0.388-0.146,0.553-0.397l0.523-0.789l0.399-0.595l0.097-0.316c0-0.18-0.141-0.348-0.496-0.603
				c-1.218-0.877-1.751-2.227-1.836-4.669c-0.072-1.851-0.175-3.06-0.329-3.615c-0.039-0.124-0.432-1.065-1.187-2.822
				c-0.291-0.697-0.558-1.48-0.791-2.367c-0.155-0.607-0.344-0.793-0.817-0.793c-1.791,0-3.137,1.526-3.137,3.543
				c0,1.19,0.494,3.055,1.395,5.336c1.265,3.191,1.601,4.328,1.601,5.458c0,2.414-0.964,3.465-4.297,4.663
				c-3.766,1.35-5.53,3.291-6.179,6.77c0.294-0.116,0.51-0.198,0.657-0.263c0.419-0.172,0.726-0.274,0.915-0.33l1.054-0.26
				c0.904-0.222,1.628-0.735,1.774-1.248l0.266-0.917c0.064-0.226,0.193-0.377,0.395-0.461l0.592-0.263l0.592-0.266l0.129,0.266
				l-0.26,0.855c-0.091,0.282-0.135,0.793-0.135,1.532C49.02,195.596,49.303,196.443,50.14,197.488"/>
			<path class="st2" d="M14.839,136.68c0.085,0.367,0.134,0.613,0.134,0.737c0,0.206-0.091,0.775-0.266,1.696l-0.116,1.334
				c0,1.176,0.209,2.43,0.576,3.465c0.336,0.945,0.421,1.244,0.421,1.5l-0.023,0.276c-0.06,0.272-0.162,0.471-0.255,0.471
				c-0.129,0-0.364-0.146-0.67-0.413c-0.755-0.653-1.574-0.991-2.428-0.991c-0.276,0-0.657,0.048-1.12,0.136l0.329,0.725
				l0.984,2.438l1.384,2.099l1.439,0.991c0.145,0.092,0.276,0.226,0.399,0.389c0.132,0.184,0.199,0.335,0.199,0.435
				c0,0.12-0.114,0.216-0.261,0.226l-1.318,0.062c-0.202,0.01-0.362,0.132-0.362,0.279c0,0.224,0.191,0.887,0.562,1.957l0.659,1.909
				l1.117,1.048l1.181,0.859c0.349,0.25,0.559,0.535,0.559,0.745c0,0.182-0.113,0.363-0.231,0.375l-0.656,0.062
				c-0.215,0.02-0.336,0.208-0.336,0.529c0,0.491,0.461,1.382,1.321,2.56c1.016,1.386,1.732,1.843,2.893,1.843h0.987
				c0.471,0,0.758,0.23,0.758,0.603c0,0.308-0.197,0.489-0.631,0.583c-0.91,0.188-1.185,0.372-1.185,0.793
				c0,0.168,0.117,0.419,0.331,0.717l0.53,0.725c0.434,0.601,0.928,0.996,1.246,0.996c0.178,0,0.592-0.184,0.959-0.605
				c0.587-0.677,1.262-1.228,2.13-1.442c2.283-0.579,2.761-0.817,2.761-1.348c0-0.186-0.088-0.449-0.262-0.755
				c-0.728-1.304-0.986-2.147-0.986-3.219c0-0.817-0.212-1.39-0.513-1.39c-0.121,0-0.325,0.202-0.54,0.531
				c-0.539,0.831-1.461,1.386-2.299,1.386c-2.276,0-5.017-3.563-6.377-8.286c-0.315-1.094-0.483-2.345-0.483-3.547
				c0-1.236,0.167-2.628,0.483-4.016c0.437-1.927,0.68-3.002,0.721-3.221l0.085-0.891C18.669,140.403,17.168,138.306,14.839,136.68"
				/>
			<path class="st2" d="M19.573,145.817c-0.484,0.917-0.928,2.976-0.928,4.282c0,0.767,0.25,1.374,0.574,1.374
				c0.106,0,0.24-0.124,0.355-0.329l0.723-1.32c0.124-0.218,0.238-0.449,0.471-0.803c0.262-0.389,0.456-0.769,0.456-0.975
				C21.222,147.267,20.502,146.304,19.573,145.817"/>
			<path class="st2" d="M26.803,175.466c0.147,0.146,0.25,0.25,0.328,0.329c0.287,0.286,0.463,0.457,0.527,0.523
				c1.281,1.328,1.474,1.458,2.092,1.458c0.572,0,1.768-0.327,2.444-0.665c0.284-0.144,0.458-0.321,0.458-0.455
				c0-0.088-0.236-0.355-0.655-0.727l-0.721-0.663c-0.551-0.493-1.363-0.956-1.75-0.956
				C28.773,174.311,27.998,174.645,26.803,175.466"/>
			<path class="st2" d="M42.056,187.364c0.703,0.295,0.95,0.413,1.316,0.659c0.592,0.387,0.938,0.605,1.047,0.653
				c0.201,0.086,0.559,0.132,1.043,0.132c0.299,0,0.574-0.046,0.798-0.132l1.386-0.523l1.314-0.461
				c0.354-0.126,0.594-0.327,0.594-0.509c0-0.094-0.297-0.238-0.727-0.346c-0.295-0.076-0.627-0.182-0.988-0.327
				c-1.617-0.655-1.854-0.745-2.427-0.745C44.124,185.765,42.826,186.39,42.056,187.364"/>
			<path class="st2" d="M58.688,200.579c0.437-1.058,0.742-1.238,2.233-1.32c1.688-0.092,3.294-3.114,3.294-5.162
				c0-0.202-0.068-0.372-0.155-0.372c-0.083,0-0.238,0.076-0.445,0.216c-0.473,0.308-0.801,0.505-0.982,0.587l-1.908,0.851
				c-1.273,0.567-2.392,2.267-2.392,3.605C58.333,199.433,58.421,199.814,58.688,200.579"/>
			<path d="M30.29,143.45l0.652,0.923c0.144,0.206,1.282,1.027,1.425,1.027c0.195,0,0.306-0.144,0.418-0.569l0.261-0.991l0.07-1.096
				c0-0.865-0.379-1.194-2.174-1.658c-0.445-0.118-0.628-0.1-0.918-0.335c-0.273-0.216-0.631-0.398-0.786-0.398
				c-0.147,0-0.27,0.078-0.27,0.18l0.072,0.29l0.328,0.981L30.29,143.45z"/>
			<path d="M37.322,143.442l-0.858,1.522c-0.207,0.232-0.317,0.354-0.328,0.36l-0.064,0.01c-0.349,0-0.701-0.799-0.727-1.626
				L35.22,142.4c0.101-0.541,0.422-0.781,1.244-0.923c0.667-0.118,1.117-0.247,1.318-0.391c0.627-0.449,0.98-0.691,1.051-0.727
				l0.111-0.02c0.177,0,0.303,0.124,0.303,0.322l-0.021,0.09l-0.458,1.124L37.322,143.442z"/>
			<path d="M35.611,147.922l1.052-0.525c0.187-0.092,0.355-0.142,0.5-0.142c0.513,0,0.892,0.379,0.892,1.07
				c0,0.751-0.587,1.761-1.392,3.209c-0.868,1.572-1.522,2.638-2.194,2.638c-0.943,0-2.285-1.504-3.588-4.018
				c-0.307-0.587-0.502-1.294-0.502-1.829c0-0.829,0.364-1.266,1.062-1.266c0.288,0,0.554,0.068,0.753,0.204l0.591,0.397
				c0.518,0.338,1.102,0.523,1.673,0.523C34.869,148.183,35.265,148.095,35.611,147.922"/>
			<path class="st2" d="M34.89,149.368c0,0,0.607,0.128,0.607,0.535l-0.018,0.188l-0.195,0.983
				c-0.218,1.314-0.518,2.123-0.944,2.123c-0.189,0-0.38-0.104-0.504-0.278c-0.678-0.957-1.195-2.183-1.195-2.848
				c0-0.473,0.206-0.711,0.626-0.711l0.108,0.008l0.727,0.128L34.89,149.368z"/>
		</g>
		<g id="Lion_top_right">
			<path d="M187.921,43.53l0.266,0.986c0.24,0.887,0.412,1.592,0.531,2.105c0.824,3.756,1.522,4.739,3.347,4.739
				c1.041,0,1.908-0.579,2.172-1.45l0.394-1.318c0.09-0.303,0.317-0.475,0.625-0.475c0.716,0,1.097,0.785,1.151,2.383
				c0.018,0.607,0.152,1.682,0.391,3.219c0.18,1.108,0.265,2.125,0.265,3.04c0,0.669-0.082,1.06-0.393,1.889l0.127,0.789
				c0.222,1.296,0.276,1.804,0.276,2.413c0,2.822-0.137,3.653-0.801,4.751c0.273,1.078,0.347,1.584,0.347,2.356
				c0,0.497-0.068,1.206-0.212,2.313l-0.266,1.973l0.067,1.182c0.176,0.435,0.261,0.705,0.261,0.787c0,0.186-0.116,0.33-0.261,0.33
				l-1.313-0.527l-1.445-0.787c-0.469-0.256-0.797-0.509-1.51-1.18c-1.272,1.124-1.455,1.228-2.965,1.64
				c-2.177,0.603-2.983,0.875-3.415,1.188c-0.424,0.296-0.739,0.455-0.91,0.455c-0.509,0-0.865-0.988-0.865-2.436
				c0-2.105,0.123-3.189,0.46-4.01c-1.28-0.433-1.926-0.589-2.391-0.589c-0.175,0-0.281,0.012-0.962,0.128l-0.294,0.028
				c-0.189,0-0.3-0.234-0.3-0.627c0-0.641,0.453-1.929,1.057-3.012c0.822-1.468,2.182-2.69,3.222-2.896l2.367-0.455
				c1.401-0.274,2.238-1.021,2.238-1.997c0-0.945-0.615-1.568-2.045-2.081l-2.76-0.986c-0.93-0.332-1.81-0.749-2.632-1.248
				c-0.693-0.429-1.18-0.709-1.442-0.859c-0.241-0.126-0.49-0.194-0.716-0.194c-0.585,0-0.941,0.427-0.941,1.126
				c0,1.111,0.863,2.033,1.908,2.033c0.235,0,0.46-0.05,0.667-0.134c0.3-0.128,0.504-0.2,0.605-0.2c0.3,0,0.515,0.29,0.515,0.705
				c0,1.17-0.732,3.191-1.513,4.158l-0.788,0.991l-0.593,0.789c-0.219,1.692-1.879,4.116-3.546,5.194
				c-0.405,0.256-0.652,0.431-0.727,0.523c-0.056,0.06-0.227,0.375-0.524,0.919c-0.137,0.254-0.58,0.779-1.319,1.58
				c-0.553,0.599-1.102,1.106-1.641,1.51c-0.734,0.557-1.177,0.959-1.313,1.186l-0.66,1.12c-0.134,0.226-0.3,0.339-0.514,0.339
				c-0.587,0-1.128-0.613-1.458-1.652c-0.238-0.769-0.454-0.991-0.952-0.991c-0.255,0-0.641,0.068-1.15,0.2l-0.918,0.126h-2.305
				c-1.242,0-2.906,0.298-3.682,0.665c-0.296,0.14-0.525,0.206-0.677,0.206c-0.338,0-0.512-0.34-0.512-1.004
				c0-2.085,1.605-5.247,3.691-7.293c-0.311-1.21-0.945-2.019-1.776-2.233c-0.747-0.2-1.141-0.311-1.185-0.328
				c-0.121-0.064-0.198-0.184-0.198-0.313c0-0.421,0.468-0.835,1.515-1.332c1.866-0.881,2.414-1.054,3.456-1.054
				c1.192,0,2.198,0.405,3.444,1.384c1.781,1.386,2.271,1.648,3.131,1.648c1.403,0,2.746-1.282,2.746-2.632
				c0-0.909-0.502-1.919-1.736-3.491c-1.751-2.235-2.368-3.693-2.368-5.586c0-1.272,0.255-1.967,1.384-3.808
				c0.177-0.296,0.276-0.541,0.276-0.705c0-0.359-0.6-0.687-1.262-0.687c-0.703,0-1.577,0.256-2.761,0.797
				c-1.978,0.907-3.157,1.754-3.157,2.269c0,0.204,0.121,0.411,0.329,0.557l0.662,0.461c0.082,0.058,0.137,0.16,0.137,0.274
				s-0.125,0.34-0.274,0.513c-0.129,0.148-0.569,0.717-1.317,1.708c-0.917,1.22-1.793,2.141-2.752,2.892
				c-0.355,0.272-0.575,0.495-0.665,0.661l-0.522,0.988c-0.44,0.821-1.737,2.179-2.831,2.956c-0.494,0.351-0.801,0.595-0.917,0.723
				c-0.135,0.148-0.331,0.457-0.593,0.919c-0.672,1.206-1.729,2.688-2.427,3.417l-1.776,1.843c-0.512,0.523-1.226,2.045-1.908,4.07
				c-0.541,1.596-0.886,2.311-1.131,2.311c-0.11,0-0.295-0.146-0.512-0.402c-1.277-1.458-2.423-2.37-2.983-2.37
				c-0.144,0-0.403,0.12-0.767,0.332c-0.505,0.304-1.102,0.531-1.772,0.661l-2.367,0.454c-1.978,0.387-2.769,0.809-3.681,1.975
				c-0.228,0.29-0.422,0.457-0.523,0.457c-0.232,0-0.406-0.339-0.406-0.799l0.067-0.577c0.018-0.062,0.129-0.655,0.337-1.773
				c0.338-1.871,0.816-3.421,1.313-4.276l1.187-2.039c0.209-0.369,0.328-0.739,0.328-1.06c0-1.516-1.414-2.746-3.554-3.084
				c-0.436-0.064-0.66-0.226-0.66-0.475c0-0.303,0.515-0.881,1.321-1.494c1.396-1.052,2.929-1.708,4.018-1.708
				c0.729,0,1.711,0.258,3.014,0.785l1.445,0.593c0.535,0.224,1.036,0.339,1.465,0.339c1.531,0,3.012-1.396,4.845-4.539
				c0.827-1.432,1.185-2.45,1.185-3.385c0-1.664-0.773-2.666-2.071-2.666c-1.016,0-1.991,0.431-2.795,1.242
				c-0.716,0.727-1.09,1.452-1.09,2.101l0.036,0.667l0.028,0.351c0,0.531-0.18,0.769-0.573,0.769c-0.497,0-1.077-0.483-2.211-1.847
				c-0.471-0.565-1.086-1.282-1.843-2.165c-1.999-2.337-2.413-3.275-2.498-5.658c-2.231-2.842-2.782-4.42-2.782-6.069l0.085-1.356
				c-1.597-1.921-1.908-2.66-1.908-4.551c0-0.851,0.049-1.073,0.397-1.756c-0.785-1.154-1.037-1.671-1.248-2.564l-0.328-1.386
				c-0.227-0.939-0.574-1.743-1.053-2.431c-0.592-0.847-0.662-0.972-0.662-1.22c0-0.687,0.657-1.128,2.306-1.538l0.525-0.134
				c-0.09-0.639-0.134-1.13-0.134-1.458c0-0.38,0.049-0.752,0.199-1.566l0.46-2.436c0.176-0.946,0.269-1.67,0.269-2.156
				c0-0.561-0.088-1.013-0.401-2.045c-0.202-0.672-0.428-1.179-0.657-1.515c-0.254-0.362-0.396-0.667-0.396-0.865
				c0-0.225,0.225-0.396,0.522-0.396c0.161,0,0.438,0.083,0.662,0.212c2.218,1.21,4.646,3.13,6.375,5.062
				c1.487,1.651,1.965,3.03,2.303,6.709c2.017,1.494,2.767,2.854,2.767,4.987c0,1.266-0.413,2.489-1.321,3.884
				c-0.804,1.232-1.242,1.909-1.314,2.039c-0.391,0.657-0.595,1.426-0.595,2.225c0,1.186,0.36,2.303,1.252,3.884
				c0.979,1.743,1.861,2.502,2.907,2.502c1.723,0,3.284-2.978,3.284-6.257l-0.013-0.647v-1.775l0.199-1.574l0.129-1.907l0.129-1.582
				l0.052-0.879c0-0.647-0.134-0.833-2.156-2.996c-2.231-2.391-3.286-4.408-3.286-6.28c0-1.769,1.52-3.247,3.343-3.247
				c0.383,0,0.724,0.065,1.39,0.256v-0.786l0.068-1.386l0.393-1.704c0.315-1.365,0.461-1.613,0.93-1.613l0.322,0.101l1.186,1.049
				l1.441,0.922l0.398,0.394c0.093-0.822,0.165-0.984,0.853-1.844c0.34-0.427,0.649-0.845,0.917-1.246l0.657-0.984l0.397-0.593
				c0.264-0.395,0.378-0.499,0.546-0.499c0.178,0,0.303,0.227,0.507,0.962c0.085,0.296,0.29,0.594,0.589,0.852l0.859,0.721
				c0.693,0.587,1.153,1.453,1.442,2.697c0.52-0.649,0.773-0.882,1.314-1.187l1.055-0.589c0.387-0.223,0.626-0.335,0.696-0.335
				c0.067,0,0.183,0.158,0.291,0.396c0.152,0.345,0.326,0.677,0.528,0.987c0.847,1.363,0.919,1.557,0.919,2.48l-0.004,0.548v0.788
				c2.135,0.587,2.964,1.736,2.964,4.096c0,1.768-0.808,3.591-2.503,5.632c-1.124,1.35-1.315,1.769-1.315,2.786
				c0,4.637,3.493,7.445,9.4,7.533l4.337,0.066c2.837,0.044,4.566,0.332,7.167,1.182c3.042,0.999,4.035,1.254,4.958,1.254
				c0.67,0,1.223-0.377,1.223-0.821c0-0.951-1.59-1.686-6.903-3.191c-10.827-3.058-15.449-7.441-15.449-14.614
				c0-5.556,4.636-9.845,10.634-9.845c1.89,0,4.842,0.505,6.525,1.12l2.691,0.987c0.494,0.181,0.971,0.276,1.414,0.276
				c0.928,0,1.282-0.581,1.417-2.315c0.06-0.773,0.307-1.115,0.801-1.115c0.69,0,2.035,1.083,3.007,2.433
				c1.003,1.386,1.714,3.216,1.714,4.407c0,1.402-0.731,2.467-2.306,3.351c-1.471,2.247-3.286,3.284-5.726,3.284
				c-1.872,0-5.051-1.267-9.059-3.612c-1.576-0.923-2.272-1.181-3.146-1.181c-1.184,0-1.944,0.661-1.944,1.705
				c0,0.951,0.7,1.541,2.655,2.232c3.113,1.11,3.78,1.472,4.669,2.568c3.35,0.581,4.804,1.162,6.903,2.758
				c6.003,1.925,9.338,5.632,9.338,10.373c0,4.322-2.926,7.441-7,7.441C190.033,43.923,189.47,43.859,187.921,43.53"/>
			<path class="st2" d="M194.433,72.322c-0.154-0.599-0.206-0.885-0.206-1.208l0.075-0.895c0.162-1.23,0.211-1.819,0.211-2.558
				c0-0.483-0.141-0.871-0.476-1.318l-0.791-1.053c-0.514-0.689-0.718-1.206-0.718-1.795c0-0.379,0.087-0.507,0.349-0.507
				l0.305,0.064c0.034,0.02,0.23,0.13,0.589,0.33c0.266,0.15,0.492,0.224,0.657,0.224c0.397,0,0.595-0.617,0.595-1.849
				c0-1.711-0.32-2.53-1.313-3.307l-0.918-0.723c-0.162-0.128-0.269-0.342-0.269-0.537c0-0.316,0.186-0.521,0.484-0.521
				c0.184,0,0.443,0.052,0.765,0.136l0.727,0.2l0.279,0.062c0.224,0,0.325-0.174,0.325-0.557l-0.013-0.228l-0.196-1.384
				c-0.209-1.434-0.445-1.981-0.869-1.981l-0.116,0.014l-1.708,0.324l-0.289,0.026c-2.053,0-4.476-1.947-5.103-4.1l-1.249-4.272
				c-0.372-1.278-1.487-2.688-3.159-4.016c-0.546-0.425-1.022-0.679-1.379-0.715l-1.181-0.136c-0.215-0.024-0.36-0.154-0.36-0.322
				c0-0.273,0.227-0.401,0.713-0.401c1.667,0,3.449,0.341,5.825,1.118c2.158,0.709,3.338,0.967,4.392,0.967
				c3.293,0,5.274-1.716,5.274-4.561c0-1.426-0.517-3.219-1.252-4.36c-0.641-0.985-1.721-1.999-3.095-2.89
				c-0.201-0.134-0.383-0.206-0.517-0.206c-0.186,0-0.337,0.146-0.337,0.335l0.067,0.853l0.003,0.078
				c0,0.322-0.186,0.585-0.419,0.585c-0.364,0-0.742-0.427-1.161-1.316c-1.211-2.568-3.163-4.118-5.174-4.118
				c-0.44,0-0.69,0.154-0.69,0.423c0,0.202,0.119,0.505,0.341,0.869c0.211,0.33,0.408,0.731,0.592,1.182
				c0.103,0.256,0.158,0.449,0.158,0.563c0,0.12-0.104,0.188-0.3,0.188c-0.294,0-0.778-0.268-1.107-0.617
				c-0.656-0.697-0.984-1.049-0.988-1.054l-0.852-1.318c-0.664-1.015-1.394-1.658-2.627-2.297l-1.649-0.855
				c-0.329-0.172-0.618-0.266-0.84-0.266c-0.204,0-0.307,0.102-0.307,0.3c0,0.206,0.101,0.469,0.297,0.755
				c0.348,0.515,0.607,1.07,0.607,1.31c0,0.224-0.144,0.396-0.33,0.396c-0.461,0-1.285-0.827-2.446-2.43
				c-0.832-1.15-1.257-2.402-1.257-3.693c0-2.767,2.133-4.925,4.881-4.925c1.409,0,3.175,0.592,4.917,1.646l3.158,1.908
				c1.129,0.683,2.654,1.185,3.608,1.185c0.522,0,0.675-0.029,1.851-0.331c0.345-0.088,0.629-0.194,0.853-0.325
				c0.142-0.085,0.241-0.24,0.241-0.387c0-0.256-0.158-0.371-0.575-0.401c-1.463-0.109-4.5-1.307-6.501-2.568
				c-1.169-0.732-1.895-1.151-2.171-1.244c-0.543-0.193-0.903-0.473-0.903-0.7c0-0.101,0.111-0.158,0.284-0.158l0.383,0.067
				l2.865,1.049l2.758,0.986c1.355,0.481,3.457,0.92,4.418,0.92c1.246,0,2.11-0.861,2.11-2.11c0-0.628-0.155-1.339-0.415-1.83
				c-0.4-0.786-0.925-1.448-1.14-1.448c-0.256,0-0.398,0.259-0.398,0.703l0.028,0.349l0.083,0.845c0,0.886-0.489,1.463-1.242,1.463
				c-0.295,0-0.656-0.072-1.076-0.209l-4.273-1.376c-3.712-1.199-5.158-1.514-6.983-1.514c-5.165,0-9.06,3.487-9.06,8.133
				c0,5.238,3.595,8.524,12.823,11.719c8.952,3.103,10.118,3.814,10.118,6.173c0,1.356-1.269,2.441-2.859,2.441
				c-0.587,0-1.104-0.05-1.54-0.132c-0.387-0.08-1.877-0.429-4.472-1.05c-2.743-0.665-5.07-0.925-8.172-0.925
				c-6.519,0-9.659,0.995-13.061,4.146c-0.785,0.733-1.104,0.867-1.983,0.867l-0.445-0.016l-1.036-0.066
				c-0.789,0-1.383,0.377-1.859,1.186l-1.053,1.777c-0.144,0.244-0.432,0.393-0.752,0.393c-0.683,0-1.044-0.451-1.683-2.035
				c-0.332-0.843-0.785-1.52-1.311-1.979l-1.383-1.184c-0.206-0.18-0.328-0.348-0.328-0.481c0-0.134,0.118-0.353,0.328-0.633
				c0.209-0.268,0.407-0.573,0.593-0.917c0.203-0.371,0.311-0.641,0.329-0.797l0.064-0.589c0.051-0.192,0.242-0.327,0.471-0.327
				c0.437,0,0.512,0.29,0.522,1.909c0,0.415,0.176,1.02,0.523,1.773l0.721,1.578c0.098,0.204,0.325,0.332,0.595,0.332
				c0.685,0,1.545-1.6,1.773-3.291c0.188-1.4,0.339-1.847,0.628-1.847c0.271,0,0.391,0.17,0.951,1.32
				c0.173,0.354,0.443,0.693,0.788,0.987c0.321,0.268,0.595,0.433,0.786,0.463l0.072,0.002c0.543,0,0.724-0.339,0.851-1.584
				l0.062-0.655l-0.13-0.925l-0.089-0.635c0-0.423,0.147-0.677,0.389-0.677c0.142,0,0.319,0.092,0.492,0.262l0.656,0.661
				c0.437,0.441,0.884,0.659,1.324,0.659c0.563,0,0.912-0.246,0.912-0.647c0-0.33-0.075-0.487-0.656-1.46
				c-0.06-0.094-0.212-0.379-0.461-0.853c-0.584-1.11-0.858-1.384-1.373-1.384l-0.667,0.064l-0.855,0.329
				c-0.253,0.098-0.43,0.152-0.522,0.152c-0.112,0-0.202-0.114-0.202-0.266c0-0.593,0.39-1.526,1.12-2.672
				c0.45-0.713,0.829-2.48,1.114-5.164l0.335-3.088c0.198-1.896,0.405-2.57,0.788-2.57c0.139,0,0.248,0.059,0.263,0.139l0.194,0.984
				v0.789c0,0.959,0.103,1.737,0.224,1.737c0.279,0,0.688-0.327,1.09-0.883c0.284-0.399,0.505-0.84,0.657-1.314
				c0.217-0.706,0.332-1.285,0.332-1.724c0-1.52-0.641-2.173-2.699-2.748c-0.207-0.059-0.344-0.126-0.391-0.198l-0.07-0.593v-1.111
				l-0.134-0.794l-0.255-0.657l-0.335-0.721l-0.523,0.325c-1.343,0.843-1.669,1.095-2.109,1.644
				c-0.597,0.757-0.803,0.944-1.052,0.944c-0.181,0-0.323-0.125-0.323-0.284l0.261-1.123l0.023-0.191
				c0-1.44-0.809-2.834-2.257-3.881l-0.46,0.525l-0.463,0.657l-0.786,0.923c-0.458,0.535-0.731,1.264-0.731,1.949l0.007,0.217
				l0.008,0.219c0,0.52-0.08,0.698-0.323,0.698l-0.144-0.062l-0.526-0.654l-0.656-0.79l-1.185-0.724l-0.591-0.458
				c-0.634,1.377-0.66,1.524-0.66,3.293l0.002,0.551c0,0.593-0.195,0.951-0.512,0.951c-0.154,0-0.432-0.113-0.801-0.327
				c-0.296-0.169-0.649-0.268-0.978-0.268c-0.956,0-1.659,0.812-1.659,1.922c0,1.204,0.259,2.029,1.058,3.342
				c0.515,0.853,1.197,1.544,1.509,1.544c0.036,0,0.122-0.609,0.202-1.412l-0.202-1.117l-0.043-0.502
				c0-0.424,0.15-0.688,0.398-0.688c0.369,0,0.595,0.41,0.83,1.515l0.528,2.436l0.524,3.088c0.143,0.831,0.41,1.713,0.792,2.628
				c0.517,1.24,0.891,2.011,1.113,2.299c0.729,0.939,0.814,1.065,0.814,1.274c0,0.162-0.134,0.306-0.286,0.306
				c-0.14,0-0.341-0.07-0.595-0.196c-0.227-0.118-0.486-0.212-0.786-0.264l-0.48-0.072c-1.089,0-1.311,0.875-1.311,5.242
				c0,2.722,0.565,6.351,1.264,8.11l1.38,3.487c0.219,0.545,0.335,1.102,0.335,1.634c0,4.807-6.503,12.488-13.348,15.785
				c-2.665,1.278-3.454,2.614-3.681,6.245c1.14-0.545,1.597-0.723,2.301-0.921c1.938-0.543,2.354-0.819,2.626-1.712l0.264-0.855
				c0.117-0.365,0.362-0.545,1.712-1.248c0.506-0.263,0.868-0.557,1.052-0.851c0.344-0.567,0.606-0.847,0.779-0.847
				c0.19,0,0.288,0.126,0.288,0.34l-0.015,0.104l-0.727,1.879l-0.08,0.463c0,1.38,0.771,2.526,2.187,3.249
				c0.091-0.346,0.155-0.609,0.194-0.785c0.233-1.005,0.458-1.666,0.657-1.971l1.254-1.843c0.45-0.665,0.533-1.103,0.533-2.8
				l-0.075-2.067l-0.039-0.527c0-0.343,0.162-0.527,0.46-0.527c0.227,0,0.419,0.086,0.435,0.2l0.194,1.25
				c0.046,0.266,0.319,0.462,0.643,0.462c0.637,0,1.45-0.813,2.319-2.301c0.331-0.581,0.466-1.033,0.466-1.57
				c0-0.417-0.085-1.336-0.207-2.043l-0.028-0.389c0-0.327,0.193-0.533,0.502-0.533c0.165,0,0.294,0.052,0.317,0.124l0.461,1.518
				c0.155,0.505,0.504,0.855,0.863,0.855c1.008,0,2.053-2.065,2.161-4.272c0.065-1.388,0.238-1.871,0.662-1.871
				c0.163,0,0.289,0.06,0.326,0.16l0.259,0.855c0.097,0.313,0.286,0.521,0.472,0.521c0.166,0,0.5-0.292,0.913-0.785
				c0.227-0.284,0.429-0.567,0.592-0.855c0.126-0.232,0.194-0.467,0.194-0.693c0-0.332-0.068-0.423-0.592-0.821
				c-0.481-0.362-0.722-0.827-0.722-1.378c0-0.954,0.404-1.977,1.574-4.012c1.074-1.845,1.218-2.059,1.479-2.059
				c0.245,0,0.437,0.244,0.437,0.561c0,0.194-0.051,0.393-0.139,0.577c-0.175,0.385-0.268,0.645-0.268,0.787
				c0,0.256,0.234,0.467,0.522,0.467c0.32,0,0.727-0.138,1.195-0.395c0.281-0.158,0.876-0.403,1.776-0.725
				c1.221-0.439,1.967-0.707,2.233-0.787c0.412-0.13,0.881-0.202,1.353-0.202c0.38,0,0.762,0.046,1.146,0.134
				c0.748,0.176,1.258,0.268,1.514,0.268c0.597,0,1.061-0.457,1.061-1.04c0-0.262-0.179-0.759-0.407-1.137
				c-0.339-0.545-0.537-0.861-0.589-0.915c-0.29-0.305-0.404-0.471-0.404-0.593l0.072-0.266c0.081-0.162,0.222-0.264,0.37-0.264
				c0.52,0,1.536,1.062,2.454,2.572c5.155,8.416,7.653,11.076,11.443,12.224c3.95,1.198,4.876,2.031,4.876,4.386
				c0,1.248-0.66,2.758-2.051,4.681c-2.629,3.649-3.554,5.784-3.554,8.21l0.007,0.541c0.321-0.138,0.564-0.248,0.722-0.332
				c0.54-0.271,0.889-0.431,1.055-0.461l1.636-0.327c0.517-0.104,0.93-0.719,0.93-1.38l-0.008-0.13l-0.126-1.448l-0.015-0.228
				c0-0.815,0.397-1.486,0.889-1.486c0.183,0,0.393,0.166,0.504,0.401l1.053,2.231C192.56,71.263,193.061,71.695,194.433,72.322"/>
			<path class="st2" d="M140.528,27.226l-0.066,1.054l-0.019,0.641c0,1.068,0.166,1.528,0.567,1.528c0.437,0,1.12-0.815,1.426-1.711
				c0.187-0.557,0.337-1.332,0.337-1.781c0-0.319-0.082-0.611-0.337-1.246c-0.296-0.719-0.599-1.052-0.966-1.052
				C140.905,24.661,140.645,25.384,140.528,27.226"/>
			<path class="st2" d="M135.991,15.066l0.923,0.918c1.344,1.347,2.266,4.085,2.266,6.732l-0.033,1.092l-0.196,3.088l-0.067,2.586
				c0,8.589,2.5,14.447,6.173,14.447c0.921,0,2.056-0.849,2.834-2.109c0.17-0.272,0.389-0.475,0.527-0.475
				c0.204,0,0.311,0.176,0.327,0.543l0.134,1.446l0.126,1.246c0.067,0.587,0.129,1.048,0.199,1.384
				c0.129,0.633,0.199,1.066,0.199,1.29c0,0.661-0.134,0.733-1.712,0.946c-0.59,0.074-1.218,0.322-1.839,0.723
				c-1.021,0.655-1.613,1.108-1.708,1.314l-0.724,1.516c-0.096,0.194-0.257,0.327-0.419,0.327c-0.386,0-0.897-0.583-1.623-1.843
				c-0.667-1.16-0.965-1.829-0.965-2.141c0-0.21,0.163-0.296,0.571-0.296l0.135,0.002l0.788,0.066l0.59-0.066l0.53-0.062
				c0.227-0.052,0.393-0.248,0.393-0.485c0-0.158-0.106-0.306-0.265-0.369l-2.958-1.254c-0.71-0.3-1.47-1.063-2.166-2.163
				c-0.758-1.214-1.2-2.267-1.2-2.864c0-0.469,0.201-0.769,0.515-0.769c0.124,0,0.294,0.044,0.484,0.148
				c0.328,0.156,0.631,0.264,0.77,0.264c0.111,0,0.235-0.05,0.352-0.134c0.126-0.1,0.199-0.216,0.199-0.316
				c0-0.188-0.199-0.435-0.525-0.675c-2.462-1.745-3.951-3.86-3.951-5.606c0-0.513,0.117-0.747,0.37-0.747l0.486,0.046
				c0.357,0.074,0.784,0.134,0.923,0.134c0.36,0,0.603-0.202,0.603-0.509c0-0.188-0.243-0.431-0.605-0.609
				c-1.639-0.819-2.043-1.29-3.089-3.619c-0.802-1.786-1.218-2.53-1.906-3.417c0.858-0.412,1.324-0.535,2.043-0.535
				c0.899,0,1.465,0.587,2.099,2.177c0.401,1.005,0.835,1.682,1.088,1.682c0.117,0,0.169-0.21,0.169-0.759
				c0-0.651-0.094-1.318-0.272-1.971c-0.16-0.601-0.232-1.09-0.193-1.45l-0.132-0.921l-0.727-0.395
				c-0.669-0.36-1.119-1.229-1.119-2.154c0-0.411,0.042-0.817,0.131-1.192c0.018-0.078,0.15-0.58,0.398-1.517
				c0.284-1.068,0.466-2.177,0.466-2.782l-0.006-0.566L135.991,15.066z"/>
			<path class="st2" d="M143.879,62.464c-1.383-0.234-1.597-0.302-3.152-0.983c-1.078-0.479-1.776-0.667-2.469-0.667
				c-1.04,0-1.841,0.328-2.794,1.126l0.589,0.457l1.319,0.922l1.254,0.985c0.317,0.256,0.708,0.399,1.102,0.399
				C141.018,64.701,142.103,64.112,143.879,62.464"/>
			<path class="st2" d="M169.189,74.429c0.368-0.817,0.535-1.041,1.316-1.712c1.839-1.576,2.694-2.746,2.694-3.679v-0.659v-0.789
				c0-0.843,0.139-1.12,0.579-1.12c0.197,0,0.357,0.076,0.409,0.2l0.328,0.783c0.075,0.184,0.289,0.294,0.556,0.294
				c0.468,0,0.802-0.336,1.613-1.67c0.344-0.565,0.481-0.93,0.481-1.302c0-0.234-0.052-0.483-0.155-0.739
				c-0.049-0.124-0.201-0.47-0.46-1.047c-0.148-0.338-0.269-0.791-0.269-1.03c0-0.431,0.219-0.685,0.59-0.685
				c0.198,0,0.371,0.076,0.475,0.206l0.52,0.651c0.119,0.142,0.148,0.23,0.348,0.23c0.242,0,0.674-0.23,0.839-0.555l0.526-1.053
				c0.133-0.26,0.201-0.471,0.201-0.597c0-0.222-0.209-0.446-0.533-0.585l-0.921-0.399c-1.078-0.461-1.973-2.314-1.973-4.074
				c0-0.198,0.07-0.487,0.197-0.853l0.398-1.12c0.131-0.367,0.196-0.739,0.196-1.092c0-0.647-0.198-1.268-0.656-1.997
				c-0.453-0.737-0.719-1.194-0.791-1.38c-0.379-0.979-0.608-1.302-0.931-1.302c-0.232,0-0.452,0.084-0.842,0.313l-0.657,0.399
				l-0.922,1.056l-0.923,0.454c-0.549,0.279-1.072,1.468-1.072,2.46c0,1.42,0.312,2.191,2.455,6.025
				c0.909,1.622,1.337,2.824,1.337,3.741c0,2.676-2.73,4.879-7.187,5.786c-5.326,1.094-6.486,1.971-7.099,5.394
				c0.921-0.477,1.288-0.545,2.913-0.545l0.964,0.012l0.153,0.002c0.879,0,0.997-0.06,1.558-0.855
				c0.644-0.909,1.285-1.45,2.17-1.833l1.052-0.465l0.853-0.461l0.263-0.068c0.238,0,0.364,0.096,0.364,0.274
				c0,0.226-0.214,0.603-0.628,1.11c-0.636,0.771-1.004,1.564-1.004,2.167C168.514,73.201,168.659,73.644,169.189,74.429"/>
			<path class="st2" d="M160.906,64.238c0.758,0.473,1.522,1.156,1.972,1.775c0.629,0.857,0.716,0.923,1.343,0.923
				c0.258,0,0.587-0.046,0.958-0.138l0.592-0.128c1.12-0.212,1.458-0.375,1.458-0.673c0-0.182-0.103-0.364-0.276-0.511l-0.788-0.655
				l-0.722-0.661c-0.447-0.403-1.365-0.729-2.073-0.729C162.553,63.441,161.885,63.658,160.906,64.238"/>
			<path class="st2" d="M182.203,67.789l0.393-0.07l0.662-0.064l0.526,0.064l0.356,0.022c0.667,0,1.011-0.072,1.287-0.288
				c0.409-0.307,0.823-0.803,1.252-1.51c0.17-0.282,0.258-0.539,0.258-0.745c0-0.443-0.407-0.701-1.125-0.701
				C184.007,64.497,182.901,65.504,182.203,67.789"/>
			<path d="M157.685,22.367c0.074,0.611,0.393,1.112,0.716,1.112c0.278,0,0.713-0.943,1.398-2.097
				c0.93-1.587,1.702-2.905,1.702-3.746c0-0.277-0.143-0.492-0.327-0.492l-0.072,0.021l-0.721,0.665
				c-0.422,0.382-1.329,0.875-2.169,1.181c-0.837,0.299-1.084,0.556-1.084,1.115l0.096,0.53l0.546,1.137L157.685,22.367z"/>
			<path d="M151.903,17.502c-0.23-0.189-0.559-0.337-0.734-0.337c-0.279,0-0.398,0.144-0.398,0.476l0.015,0.189
				c0.052,0.362,0.142,0.734,0.258,1.114c0.326,1.045,0.711,1.672,0.864,1.839l0.992,1.662c0.46,0.527,1.158,0.823,1.429,0.905
				l0.047,0.006c0.178,0,0.323-0.112,0.344-0.268l0.204-1.316l0.326-1.187l0.039-0.279c0-0.318-0.183-0.603-0.497-0.768l-1.12-0.595
				L151.903,17.502z"/>
			<path d="M156.237,25.85l-0.348,0.002l-0.766-0.068c-0.026-0.01-0.292-0.17-0.793-0.467c-0.294-0.174-0.613-0.262-0.923-0.262
				c-0.603,0-0.964,0.372-0.964,1.007c0,0.495,0.295,1.448,0.837,2.742c0.236,0.553,0.521,1.254,0.856,2.101
				c0.721,1.839,1.473,2.63,2.464,2.63c0.85,0,1.536-0.699,2.071-2.097l0.726-2.962c0.349-0.922,1.218-1.306,1.218-1.953
				c0-0.755-0.843-1.478-1.561-1.478l-0.383,0.074l-0.984,0.665L156.237,25.85z"/>
			<path class="st2" d="M156.175,27.687h-0.791c-0.119,0-0.24,0.072-0.329,0.196c-0.129,0.184-0.199,0.306-0.199,0.328l0.328,1.58
				l0.264,1.376c0.149,0.759,0.273,1.055,0.839,1.055c0.645,0,1.195-0.441,1.264-1.25l0.133-1.448c0.09-0.959,0.131-1.464,0.131-1.5
				c0-0.142-0.072-0.286-0.193-0.403c-0.099-0.09-0.218-0.142-0.339-0.142l-0.059,0.008L156.175,27.687z"/>
		</g>
		<g id="Lion_top_left">
			<path d="M65.259,43.53l0.263,0.986c0.237,0.887,0.411,1.592,0.528,2.105c0.826,3.756,1.524,4.739,3.347,4.739
				c1.043,0,1.908-0.579,2.172-1.45l0.398-1.318c0.086-0.303,0.319-0.481,0.629-0.481c0.711,0,1.045,0.739,1.075,2.389
				c0.014,0.473,0.166,1.546,0.466,3.219c0.173,0.989,0.258,1.951,0.258,2.868c0,0.847-0.064,1.194-0.39,2.061
				c0.224,1.29,0.396,3.028,0.396,4.026c0,1.628-0.305,3.137-0.791,3.928c0.273,1.09,0.333,1.526,0.333,2.476
				c0,0.703-0.07,1.466-0.204,2.193c-0.288,1.578-0.349,1.979-0.349,2.271c0,0.298,0.057,0.595,0.153,0.883
				c0.128,0.378,0.196,0.641,0.196,0.787c0,0.186-0.086,0.33-0.196,0.33l-1.314-0.527l-1.447-0.787
				c-0.466-0.256-0.791-0.509-1.51-1.18c-1.279,1.15-1.659,1.32-4.997,2.235c-0.667,0.176-1.161,0.381-1.448,0.593
				c-0.411,0.296-0.718,0.455-0.873,0.455c-0.564,0-0.837-0.907-0.837-2.786c0-1.39,0.141-2.686,0.397-3.659
				c-0.982-0.377-1.817-0.589-2.349-0.589c-0.101,0-0.436,0.046-1.003,0.128l-0.247,0.022c-0.191,0-0.353-0.288-0.353-0.631
				c0-0.256,0.178-0.889,0.404-1.426l0.654-1.576c0.239-0.571,0.783-1.228,1.579-1.903c0.649-0.557,1.241-0.895,1.71-0.993
				l2.367-0.455c1.406-0.274,2.244-1.021,2.244-1.997c0-0.945-0.634-1.584-2.048-2.081L61.644,57.4
				c-0.728-0.252-1.589-0.677-2.567-1.248c-1.567-0.929-1.83-1.054-2.205-1.054c-0.564,0-0.889,0.427-0.889,1.17
				c0,1.17,0.76,1.987,1.844,1.987c0.219,0,0.448-0.048,0.659-0.132c0.32-0.128,0.551-0.2,0.678-0.2c0.297,0,0.46,0.174,0.46,0.501
				l-0.018,0.288l-0.132,1.118c-0.113,0.957-0.729,2.113-2.104,3.948l-0.587,0.789c-0.536,2.115-1.854,4.044-3.549,5.194
				c-0.43,0.286-0.675,0.465-0.727,0.523c-0.057,0.06-0.232,0.375-0.527,0.919c-0.132,0.254-0.575,0.779-1.314,1.58
				c-0.554,0.605-1.107,1.106-1.644,1.51c-0.734,0.557-1.179,0.962-1.313,1.186l-0.657,1.12c-0.121,0.202-0.317,0.327-0.53,0.327
				c-0.58,0-1.117-0.605-1.445-1.64c-0.238-0.769-0.456-0.991-0.951-0.991c-0.256,0-0.642,0.068-1.148,0.2l-0.92,0.126h-2.371
				c-1.182,0-2.852,0.308-3.614,0.665c-0.305,0.14-0.533,0.206-0.678,0.206c-0.165,0-0.264-0.086-0.44-0.405
				c-0.116-0.22-0.144-0.324-0.144-0.527c0-1.204,0.858-3.463,1.982-5.262c0.72-1.136,0.944-1.398,1.775-2.103
				c-0.266-1.114-0.977-1.979-1.836-2.233l-1.12-0.328c-0.155-0.046-0.266-0.178-0.266-0.319c0-0.343,0.536-0.809,1.517-1.326
				c1.283-0.677,2.576-1.054,3.61-1.054c1.093,0,2.147,0.433,3.358,1.384c1.784,1.392,2.259,1.648,3.131,1.648
				c1.406,0,2.743-1.288,2.743-2.638c0-0.899-0.478-1.863-1.736-3.485c-1.83-2.37-2.38-3.601-2.38-5.34
				c0-1.08,0.333-2.46,0.737-3.074l0.659-0.98c0.139-0.222,0.219-0.439,0.219-0.635c0-0.441-0.506-0.757-1.189-0.757
				c-1.037,0-3.032,0.741-4.62,1.714c-0.786,0.483-1.324,1.048-1.324,1.402c0,0.206,0.103,0.395,0.273,0.507l0.726,0.461
				c0.085,0.054,0.141,0.158,0.141,0.274c0,0.092-0.111,0.3-0.273,0.513l-1.316,1.708c-0.677,0.887-1.724,1.981-2.759,2.892
				c-0.348,0.306-0.566,0.525-0.659,0.661c-0.008,0.008-0.183,0.337-0.522,0.988c-0.471,0.875-1.714,2.147-2.896,2.956
				c-0.483,0.332-0.79,0.575-0.919,0.723c-0.096,0.11-0.273,0.421-0.525,0.919c-0.165,0.32-0.454,0.783-0.859,1.378
				c-0.641,0.954-1.174,1.634-1.574,2.039l-1.844,1.843c-0.568,0.563-1.062,1.666-1.841,4.07c-0.462,1.456-0.883,2.311-1.127,2.311
				c-0.111,0-0.291-0.146-0.515-0.402c-1.303-1.486-2.423-2.37-3.013-2.37c-0.135,0-0.383,0.114-0.732,0.332
				c-0.482,0.3-1.08,0.531-1.777,0.661l-2.43,0.454c-1.839,0.349-2.565,0.747-3.617,1.975c-0.252,0.29-0.46,0.457-0.574,0.457
				c-0.201,0-0.348-0.327-0.348-0.763l0.067-0.613l0.333-1.773c0.348-1.899,0.783-3.311,1.314-4.276l1.111-2.039
				c0.222-0.396,0.331-0.759,0.331-1.065c0-1.516-1.564-2.902-3.48-3.079c-0.487-0.04-0.672-0.156-0.672-0.429
				c0-0.332,0.535-0.991,1.264-1.54c1.316-0.999,3.035-1.713,4.139-1.713c0.665,0,1.694,0.28,2.955,0.789l1.448,0.593
				c0.537,0.224,1.033,0.339,1.465,0.339c1.531,0,3.014-1.396,4.842-4.539c0.825-1.424,1.184-2.452,1.184-3.377
				c0-1.66-0.786-2.674-2.086-2.674c-0.984,0-2.063,0.471-2.841,1.242c-0.662,0.669-1.011,1.368-1.011,2.037l0.023,0.731
				l0.008,0.162c0,0.615-0.204,0.957-0.572,0.957c-0.623,0-1.522-0.885-4.102-4.012c-1.924-2.331-2.354-3.329-2.433-5.658
				c-2.231-2.842-2.784-4.048-2.784-6.069l0.091-1.356c-1.544-1.857-1.978-2.87-1.978-4.573c0-0.621,0.1-0.989,0.466-1.735
				c-0.784-1.154-1.038-1.671-1.25-2.564l-0.328-1.386c-0.224-0.939-0.579-1.753-1.052-2.431c-0.6-0.849-0.659-0.965-0.659-1.258
				c0-0.761,0.525-1.064,2.831-1.634c-0.094-0.639-0.135-1.13-0.135-1.458c0-0.38,0.044-0.752,0.199-1.566l0.458-2.436
				c0.186-0.982,0.281-1.683,0.281-2.104c0-0.456-0.073-0.778-0.481-2.097c-0.227-0.75-0.427-1.261-0.587-1.515
				c-0.217-0.337-0.401-0.75-0.401-0.901c0-0.228,0.163-0.36,0.452-0.36c0.655,0,2.374,1.044,4.152,2.514
				c3.772,3.122,4.551,4.371,5.065,8.148c0.038,0.295,0.1,0.733,0.196,1.322c1.81,1.328,2.761,2.934,2.761,4.659
				c0,1.356-0.497,2.938-1.316,4.212l-1.317,2.039c-0.387,0.597-0.591,1.348-0.591,2.173c0,1.238,0.356,2.374,1.249,3.936
				c1.007,1.775,1.867,2.502,2.929,2.502c1.731,0,3.252-3.016,3.252-6.445v-0.459L25.872,33.8c0-0.669,0.039-1.332,0.143-2.165
				c0.121-1.023,0.185-1.658,0.193-1.907l0.07-1.582l0.021-1.037c0-0.367-0.194-0.739-0.683-1.258l-1.44-1.58
				c-2.094-2.281-3.242-4.424-3.242-6.029c0-1.996,1.437-3.498,3.356-3.498c0.381,0,0.729,0.065,1.393,0.256v-0.448
				c0-2.898,0.595-5.041,1.391-5.041l0.315,0.101l1.187,1.049l1.443,0.922l0.398,0.394c0-0.815,0.041-0.9,0.858-1.844
				c0.196-0.224,0.499-0.641,0.918-1.246c0.33-0.487,0.553-0.815,0.653-0.984c0.103-0.169,0.215-0.371,0.333-0.593
				c0.173-0.336,0.349-0.492,0.544-0.492c0.183,0,0.333,0.238,0.571,0.955c0.155,0.447,0.258,0.569,1.386,1.573
				c0.391,0.354,0.659,0.644,0.783,0.858c0.111,0.178,0.288,0.618,0.53,1.309c0.042,0.119,0.104,0.291,0.197,0.53
				c0.488-0.618,0.726-0.838,1.313-1.187l0.987-0.589c0.368-0.223,0.623-0.339,0.729-0.339c0.082,0,0.209,0.158,0.323,0.401
				c0.103,0.235,0.281,0.559,0.525,0.987c0.698,1.221,0.933,1.808,0.933,2.38l-0.018,0.648v0.788
				c2.16,0.678,2.967,1.795,2.967,4.116c0,1.673-0.876,3.593-2.57,5.612c-1.13,1.346-1.259,1.612-1.259,2.55
				c0,4.865,3.386,7.681,9.346,7.769l4.402,0.066c2.834,0.044,4.525,0.324,7.165,1.182c3.128,1.02,4.035,1.254,4.94,1.254
				c0.304,0,0.603-0.096,0.85-0.268c0.243-0.166,0.391-0.389,0.391-0.583c0-0.921-1.616-1.66-6.9-3.161
				c-10.843-3.071-15.447-7.437-15.447-14.617c0-5.55,4.615-9.846,10.582-9.846c1.923,0,4.878,0.506,6.572,1.124l2.691,0.987
				c0.496,0.181,0.971,0.276,1.419,0.276c0.915,0,1.381-0.762,1.412-2.315c0.02-0.827,0.207-1.115,0.749-1.115
				c0.758,0,1.929,0.947,2.997,2.433c1.083,1.499,1.781,3.191,1.781,4.315c0,1.497-0.704,2.536-2.306,3.443
				c-1.476,2.247-3.291,3.284-5.729,3.284c-1.9,0-4.599-1.074-9.061-3.612c-1.556-0.883-2.349-1.181-3.17-1.181
				c-1.16,0-1.918,0.672-1.918,1.705c0,0.946,0.734,1.562,2.658,2.232c2.839,0.995,3.539,1.382,4.666,2.568
				c3.348,0.581,4.806,1.162,6.905,2.758c5.768,1.833,9.347,5.764,9.347,10.277c0,4.388-2.97,7.543-7.096,7.543
				C67.386,43.929,66.781,43.855,65.259,43.53"/>
			<path class="st2" d="M71.766,72.322c-0.178-0.791-0.242-1.198-0.242-1.586l0.046-0.517l0.196-1.054l0.07-0.849
				c0-0.914-0.155-1.562-0.463-1.973l-0.791-1.053c-0.256-0.351-0.487-0.773-0.654-1.254c-0.091-0.236-0.135-0.428-0.135-0.553
				c0-0.298,0.179-0.483,0.476-0.483c0.176,0,0.246,0.032,0.841,0.383c0.255,0.15,0.478,0.224,0.643,0.224
				c0.391,0,0.608-0.635,0.608-1.751c0-1.268-0.116-1.975-0.394-2.289l-0.989-1.116l-0.853-0.723
				c-0.206-0.178-0.35-0.401-0.35-0.573c0-0.282,0.217-0.481,0.536-0.481c0.297,0,0.928,0.142,1.455,0.332l0.3,0.062
				c0.272,0,0.375-0.156,0.375-0.545l-0.016-0.24l-0.198-1.384l-0.391-1.444c-0.129-0.471-0.202-0.543-0.499-0.543l-0.165,0.02
				l-1.637,0.324l-0.264,0.026c-2.154,0-4.431-1.819-5.128-4.1l-1.314-4.272c-0.407-1.32-1.391-2.572-3.159-4.016
				c-0.531-0.435-0.988-0.681-1.311-0.715l-1.188-0.136c-0.216-0.024-0.356-0.148-0.356-0.329c0-0.268,0.253-0.393,0.818-0.393
				l2.168,0.194c0.791,0.074,1.986,0.383,3.549,0.922c1.968,0.677,3.295,0.967,4.411,0.967c3.286,0,5.256-1.778,5.256-4.751
				c0-2.035-1.065-4.338-2.692-5.816c-0.928-0.827-1.851-1.45-2.172-1.45c-0.185,0-0.332,0.152-0.332,0.348l0.067,0.839l0.005,0.078
				c0,0.328-0.193,0.585-0.45,0.585c-0.333,0-0.706-0.433-1.135-1.316c-1.244-2.588-3.217-4.126-5.259-4.126
				c-0.346,0-0.587,0.144-0.587,0.348c0,0.134,0.106,0.457,0.323,0.951l0.525,1.182c0.139,0.312,0.214,0.517,0.214,0.605
				c0,0.074-0.126,0.146-0.28,0.146c-0.304,0-0.783-0.268-1.117-0.617l-0.98-1.054l-0.857-1.318
				c-0.688-1.049-1.236-1.528-2.697-2.297c-0.814-0.435-1.34-0.721-1.577-0.855c-0.302-0.172-0.582-0.266-0.817-0.266
				c-0.234,0-0.352,0.112-0.352,0.343c0,0.212,0.091,0.463,0.251,0.713c0.486,0.751,0.675,1.124,0.675,1.318
				c0,0.208-0.155,0.388-0.34,0.388c-0.506,0-1.571-1.033-2.508-2.43c-0.773-1.158-1.186-2.447-1.186-3.693
				c0-2.826,2.062-4.925,4.855-4.925c1.442,0,3.263,0.61,4.943,1.646l3.089,1.908c1.073,0.667,2.653,1.185,3.594,1.185
				c0.418,0,1.285-0.148,1.928-0.331c0.288-0.077,0.554-0.186,0.788-0.325c0.181-0.111,0.311-0.258,0.311-0.369
				c0-0.132-0.072-0.251-0.181-0.288l-0.393-0.131l-1.445-0.266c-0.375-0.067-0.974-0.288-1.771-0.66
				c-1.737-0.79-2.838-1.344-3.291-1.641c-1.08-0.708-1.808-1.123-2.167-1.244c-0.535-0.181-0.868-0.422-0.868-0.625
				c0-0.197,0.101-0.29,0.295-0.29c0.185,0,0.432,0.086,0.7,0.251c0.97,0.605,1.813,0.922,2.432,0.922l2.828,0.986
				c1.404,0.491,3.449,0.92,4.372,0.92c1.192,0,2.158-0.972,2.158-2.172c0-0.772-0.461-1.93-1.14-2.884
				c-0.153-0.215-0.311-0.337-0.443-0.337c-0.265,0-0.409,0.189-0.409,0.528l0.06,0.53l0.103,0.783c0,0.853-0.574,1.523-1.303,1.523
				c-0.268,0-0.615-0.07-1.035-0.207l-4.27-1.376c-3.584-1.158-5.238-1.514-7.034-1.514c-5.111,0.008-9.01,3.516-9.01,8.133
				c0,5.23,3.674,8.605,12.756,11.719c8.935,3.068,10.191,3.814,10.191,6.117c0,1.318-1.339,2.498-2.831,2.498
				c-0.605,0-1.135-0.05-1.576-0.132c-0.304-0.064-1.792-0.415-4.468-1.05c-2.699-0.649-5.152-0.925-8.183-0.925
				c-6.449,0-10.025,1.13-13.12,4.146c-0.77,0.753-1.03,0.867-1.92,0.867l-0.443-0.016l-0.92-0.064l-0.119-0.002
				c-0.775,0-1.341,0.359-1.854,1.186c-0.695,1.112-1.071,1.706-1.119,1.777c-0.183,0.248-0.464,0.393-0.75,0.393
				c-0.592,0-0.943-0.447-1.613-2.035c-0.325-0.775-0.796-1.448-1.38-1.979l-1.316-1.184c-0.215-0.19-0.331-0.369-0.331-0.501
				c0-0.146,0.093-0.356,0.261-0.613c0.631-0.915,0.848-1.324,0.923-1.715c0.175-0.873,0.201-0.915,0.561-0.915
				c0.409,0,0.525,0.405,0.556,1.909c0.01,0.435,0.185,1.038,0.53,1.773L32,41.822c0.09,0.204,0.323,0.332,0.592,0.332
				c0.68,0,1.54-1.598,1.773-3.291c0.188-1.412,0.338-1.847,0.63-1.847c0.122,0,0.228,0.05,0.289,0.138
				c0.066,0.096,0.268,0.489,0.591,1.182c0.173,0.364,0.464,0.703,0.856,0.987c0.378,0.279,0.646,0.435,0.788,0.463l0.08,0.008
				c0.533,0,0.714-0.348,0.84-1.59l0.065-0.655l-0.132-0.925l-0.092-0.635c0-0.423,0.149-0.677,0.389-0.677
				c0.145,0,0.321,0.092,0.492,0.262l0.659,0.661c0.437,0.433,0.879,0.655,1.3,0.655c0.546,0,0.882-0.222,0.882-0.583
				c0-0.316-0.122-0.627-0.608-1.52l-0.458-0.853c-0.528-0.991-0.946-1.384-1.44-1.384l-0.664,0.064l-0.784,0.329
				c-0.242,0.098-0.416,0.152-0.517,0.152c-0.124,0-0.209-0.112-0.209-0.26c0-0.589,0.383-1.518,1.117-2.678
				c0.52-0.833,0.879-2.612,1.051-5.164c0.224-3.433,0.684-5.658,1.163-5.658c0.329,0,0.45,0.276,0.45,1.011l-0.033,0.902
				l-0.024,0.629c0,0.615,0.135,1.108,0.296,1.108c0.563,0,1.231-0.837,1.763-2.197c0.222-0.571,0.339-1.023,0.339-1.341
				l-0.073-0.305l-1.313-2.436l-1.316-0.391c-0.243-0.072-0.409-0.183-0.461-0.295v-0.887v-0.72l-0.131-0.794l-0.266-0.657
				l-0.323-0.721c-1.442,0.781-2.125,1.295-2.632,1.97c-0.515,0.688-0.806,0.952-1.062,0.952c-0.17,0-0.319-0.161-0.319-0.347
				c0-0.162,0.065-0.514,0.197-1.068l0.041-0.368c0-1.414-0.861-2.805-2.275-3.704l-0.393,0.525l-0.463,0.657l-0.788,0.923
				c-0.251,0.291-0.477,0.738-0.66,1.313c-0.088,0.278-0.134,0.533-0.134,0.75l0.003,0.103l0.007,0.24
				c0,0.546-0.059,0.687-0.304,0.687l-0.163-0.072l-0.461-0.654l-0.72-0.79l-1.118-0.724l-0.59-0.458
				c-0.119,0.258-0.206,0.458-0.263,0.589c-0.204,0.458-0.315,0.812-0.328,1.055l-0.071,1.051l-0.064,1.113l0.008,0.193
				c0,0.577-0.139,0.797-0.489,0.797c-0.116,0-0.45-0.14-0.768-0.329c-0.289-0.169-0.623-0.268-0.951-0.268
				c-1.023,0-1.68,0.708-1.68,1.816c0,1.313,0.388,2.575,1.057,3.448l0.85,1.118c0.236,0.298,0.67,0.555,0.693,0.393l0.163-1.378
				l-0.199-1.117l-0.039-0.502c0-0.424,0.147-0.688,0.391-0.688c0.372,0,0.595,0.41,0.833,1.515l0.522,2.436l0.53,3.088
				c0.14,0.831,0.407,1.713,0.786,2.628c0.522,1.24,0.897,2.011,1.119,2.299c0.732,0.939,0.81,1.065,0.81,1.274
				c0,0.162-0.132,0.306-0.282,0.306c-0.139,0-0.344-0.07-0.592-0.196c-0.227-0.118-0.491-0.212-0.789-0.264l-0.514-0.074
				c-1.057,0-1.272,0.905-1.272,5.294c0,2.68,0.566,6.313,1.262,8.06l1.377,3.487c0.22,0.545,0.329,1.102,0.329,1.63
				c0,4.795-6.356,12.318-13.341,15.789c-2.599,1.284-3.428,2.522-3.614,5.386l-0.065,0.859c1.057-0.553,1.491-0.733,2.231-0.921
				c1.96-0.511,2.339-0.757,2.634-1.712l0.258-0.855c0.101-0.322,0.266-0.439,1.777-1.248c0.52-0.272,0.881-0.571,1.055-0.851
				c0.33-0.555,0.605-0.849,0.781-0.849c0.162,0,0.254,0.076,0.254,0.212l-0.054,0.234l-0.654,1.879l-0.08,0.461
				c0,1.392,0.762,2.526,2.184,3.251c0.233-1.52,0.393-2.041,0.856-2.756l1.181-1.843c0.44-0.685,0.623-1.514,0.623-2.814
				c0-0.735-0.059-1.492-0.162-2.053l-0.044-0.521c0-0.332,0.173-0.527,0.462-0.527c0.228,0,0.412,0.08,0.436,0.194l0.266,1.25
				c0.051,0.27,0.324,0.462,0.638,0.462c0.633,0,1.455-0.823,2.319-2.301c0.317-0.551,0.489-1.15,0.489-1.741l-0.099-0.891
				l-0.195-0.981l-0.016-0.192c0-0.431,0.24-0.733,0.581-0.733c0.151,0,0.272,0.056,0.292,0.128l0.391,1.518
				c0.132,0.503,0.487,0.855,0.853,0.855c0.442,0,1.2-0.761,1.644-1.646c0.399-0.783,0.594-1.673,0.594-2.688
				c0-1.404,0.145-1.805,0.658-1.805c0.165,0,0.298,0.058,0.327,0.156l0.263,0.855c0.101,0.313,0.288,0.521,0.471,0.521
				c0.272,0,1.008-0.795,1.502-1.64c0.132-0.218,0.201-0.435,0.201-0.611c0-0.282-0.188-0.565-0.594-0.903
				c-0.688-0.567-0.727-0.655-0.727-1.512c0-0.825,0.134-1.26,0.727-2.297c0.317-0.563,0.6-1.086,0.853-1.58
				c0.831-1.626,1.127-2.043,1.43-2.043c0.252,0,0.48,0.274,0.48,0.579c0,0.172-0.044,0.359-0.137,0.543
				c-0.177,0.37-0.265,0.633-0.265,0.781c0,0.258,0.217,0.473,0.488,0.473c0.303,0,0.704-0.138,1.159-0.395
				c0.176-0.104,0.791-0.338,1.838-0.725l2.174-0.787c0.356-0.13,0.802-0.2,1.316-0.2c0.404,0,0.794,0.044,1.179,0.132
				c0.776,0.176,1.283,0.268,1.516,0.268c0.594,0,1.122-0.513,1.122-1.096c0-0.439-0.453-1.298-1.058-1.997
				c-0.225-0.264-0.338-0.463-0.338-0.599l0.077-0.26c0.086-0.162,0.219-0.264,0.349-0.264c0.442,0,1.481,1.108,2.412,2.572
				c5.657,8.909,7.688,11.066,11.505,12.224c3.864,1.178,4.875,2.081,4.875,4.376c0,1.256-0.643,2.718-2.049,4.691
				c-2.862,4.004-3.553,5.622-3.553,8.264l0.003,0.487c0.323-0.138,0.564-0.248,0.724-0.332c0.535-0.271,0.892-0.431,1.049-0.461
				l1.641-0.327c0.494-0.102,0.933-0.735,0.933-1.344l-0.01-0.166l-0.197-1.448l-0.015-0.192c0-0.513,0.256-1.1,0.606-1.388
				c0.108-0.082,0.224-0.14,0.343-0.14c0.181,0,0.403,0.172,0.515,0.407l1.051,2.231C69.9,71.263,70.401,71.695,71.766,72.322"/>
			<path class="st2" d="M18.767,24.665c-0.48,0-0.726,0.412-0.775,1.316l-0.129,1.246c-0.152,1.166-0.162,1.288-0.162,1.59
				c0,0.939,0.278,1.636,0.659,1.636c0.422,0,1.078-0.803,1.406-1.719c0.201-0.557,0.298-1.037,0.298-1.534
				c0-0.435-0.106-0.962-0.298-1.486C19.527,25.045,19.161,24.665,18.767,24.665"/>
			<path class="st2" d="M13.327,15.066l0.92,0.918c1.502,1.5,2.241,3.987,2.241,7.527c0,0.777-0.036,1.3-0.204,3.385
				c-0.083,1.098-0.132,2.001-0.132,2.71c0,8.152,2.65,14.317,6.155,14.317c1.105,0,1.821-0.527,2.855-2.103
				c0.168-0.256,0.432-0.475,0.594-0.475c0.207,0,0.311,0.17,0.324,0.543l0.132,1.446l0.134,1.246l0.129,1.384l0.196,1.25
				l0.013,0.158c0,0.365-0.16,0.573-0.473,0.625l-1.182,0.202c-0.587,0.092-1.213,0.34-1.841,0.723
				c-0.992,0.595-1.587,1.054-1.708,1.314l-0.722,1.516c-0.101,0.194-0.256,0.327-0.411,0.327c-0.38,0-0.993-0.665-1.698-1.843
				c-0.6-1.001-0.962-1.817-0.962-2.147c0-0.208,0.161-0.289,0.577-0.289h0.127l0.85,0.066l0.525-0.066l0.595-0.062
				c0.225-0.028,0.397-0.226,0.397-0.463c0-0.172-0.108-0.329-0.266-0.391l-2.956-1.254c-0.911-0.38-1.702-1.148-2.234-2.163
				c-0.815-1.558-1.192-2.489-1.192-2.956c0-0.404,0.211-0.673,0.535-0.673c0.114,0,0.269,0.048,0.458,0.144
				c0.292,0.142,0.677,0.264,0.832,0.264c0.258,0,0.487-0.196,0.487-0.415c0-0.178-0.235-0.491-0.528-0.711
				c-2.47-1.791-3.886-3.85-3.886-5.626c0-0.495,0.121-0.733,0.38-0.733l0.479,0.052l0.853,0.128h0.041
				c0.321,0,0.567-0.21,0.567-0.507c0-0.18-0.22-0.431-0.543-0.605c-0.585-0.33-0.936-0.529-1.051-0.591
				c-0.367-0.228-0.679-0.541-0.919-0.925c-0.106-0.174-0.48-0.871-1.115-2.103l-0.92-1.775c-0.346-0.661-0.544-1.037-0.595-1.116
				c-0.06-0.096-0.189-0.271-0.399-0.527c0.861-0.412,1.329-0.535,2.048-0.535c0.897,0,1.466,0.587,2.102,2.177
				c0.395,1.005,0.835,1.682,1.083,1.682c0.125,0,0.171-0.218,0.171-0.771c0-0.649-0.093-1.314-0.274-1.959
				c-0.157-0.597-0.227-1.09-0.196-1.45l-0.129-0.921l-0.785-0.395c-0.176-0.08-0.381-0.316-0.595-0.655
				c-0.366-0.577-0.525-1.056-0.525-1.496c0-0.282,0.072-0.73,0.196-1.195c0.667-2.51,0.863-3.485,0.863-4.299l-0.011-0.566
				L13.327,15.066z"/>
			<path class="st2" d="M21.214,62.464c-0.918-0.134-1.347-0.238-1.908-0.462c-0.155-0.062-0.571-0.236-1.247-0.521
				c-1.06-0.453-1.853-0.665-2.515-0.665c-0.993,0-1.805,0.337-2.74,1.124l0.589,0.457l1.313,0.922l1.252,0.985
				c0.32,0.256,0.702,0.399,1.083,0.399C18.329,64.701,19.447,64.098,21.214,62.464"/>
			<path class="st2" d="M46.526,74.429c0.36-0.817,0.53-1.041,1.316-1.712c1.836-1.576,2.691-2.746,2.691-3.679v-0.659v-0.789
				c0-0.843,0.143-1.12,0.583-1.12c0.195,0,0.354,0.076,0.405,0.2l0.325,0.783c0.077,0.186,0.298,0.304,0.556,0.304
				c0.25,0,0.631-0.3,0.959-0.765l0.659-0.915c0.329-0.459,0.476-0.855,0.476-1.284c0-0.256-0.054-0.511-0.147-0.757
				c-0.054-0.126-0.207-0.475-0.461-1.047c-0.152-0.338-0.271-0.791-0.271-1.03c0-0.431,0.217-0.685,0.59-0.685
				c0.193,0,0.367,0.076,0.468,0.206l0.528,0.651c0.113,0.142,0.299,0.23,0.499,0.23c0.24,0,0.52-0.23,0.682-0.555l0.526-1.053
				c0.137-0.266,0.208-0.471,0.208-0.587c0-0.204-0.214-0.417-0.6-0.595l-0.855-0.399c-1.127-0.517-1.98-2.327-1.98-4.212
				c0-0.252,0.051-0.501,0.137-0.715l0.46-1.12c0.134-0.314,0.201-0.669,0.201-1.047c0-0.685-0.225-1.372-0.661-2.041
				c-0.526-0.809-0.812-1.27-0.856-1.38c-0.388-1.039-0.587-1.33-0.91-1.33l-0.332,0.08l-0.461,0.26l-0.727,0.399l-0.853,1.056
				l-0.919,0.454c-0.551,0.276-1.071,1.448-1.071,2.416c0,1.708,0.193,2.179,2.446,6.069c0.879,1.5,1.339,2.8,1.339,3.757
				c0,2.692-2.412,4.611-7.251,5.77L41.2,68.312c-2.226,0.537-3.539,2.063-4.012,4.671c0.922-0.477,1.285-0.545,2.913-0.545
				l0.967,0.012l0.152,0.002c0.876,0,0.997-0.06,1.553-0.855c0.652-0.909,1.291-1.45,2.172-1.833l1.053-0.465l0.855-0.461
				l0.26-0.068c0.235,0,0.363,0.096,0.363,0.271c0,0.256-0.24,0.687-0.623,1.113c-0.758,0.841-1.053,1.548-1.053,2.546
				C45.802,73.333,45.955,73.704,46.526,74.429"/>
			<path class="st2" d="M38.24,64.238c0.756,0.473,1.526,1.156,1.976,1.775c0.628,0.857,0.718,0.923,1.337,0.923
				c0.266,0,0.591-0.046,0.961-0.138l0.589-0.128c1.086-0.21,1.453-0.369,1.453-0.635c0-0.158-0.119-0.361-0.333-0.549l-0.721-0.655
				L42.78,64.17c-0.466-0.425-1.383-0.737-2.169-0.737C39.82,63.433,39.362,63.593,38.24,64.238"/>
			<path class="st2" d="M59.541,67.789l0.393-0.07l0.595-0.064l0.592,0.064l0.289,0.02c1.46,0,2.862-1.238,2.862-2.542
				c0-0.451-0.411-0.701-1.159-0.701C61.341,64.497,60.23,65.516,59.541,67.789"/>
			<path d="M35.024,22.367c0.07,0.607,0.388,1.112,0.711,1.112c0.276,0,0.595-0.727,1.277-1.883
				c0.928-1.579,1.823-3.118,1.823-3.958c0-0.28-0.137-0.491-0.329-0.491l-0.067,0.02l-0.724,0.657
				c-0.524,0.474-0.935,0.698-2.236,1.182c-0.742,0.282-1.011,0.579-1.011,1.12l0.093,0.527l0.329,0.923L35.024,22.367z"/>
			<path d="M31.012,18.944l1.112,0.595c0.307,0.162,0.476,0.377,0.476,0.633l-0.078,0.414c-0.162,0.554-0.033,1.171-0.043,1.401
				c-0.057,1.176-0.949,1.164-1.309,1.164c-0.217,0-0.103-0.136-0.618-0.727l-1.447-1.64c-0.446-0.505-0.833-1.656-0.989-2.952
				l-0.008-0.171c0-0.36,0.115-0.494,0.4-0.494c0.175,0,0.501,0.147,0.728,0.337L31.012,18.944z"/>
			<path d="M33.571,25.85l-0.355,0.002l-0.759-0.068c-0.016-0.008-0.281-0.162-0.791-0.467c-0.297-0.174-0.621-0.262-0.938-0.262
				c-0.595,0-0.981,0.328-0.981,0.825c0,0.545,0.266,1.442,0.866,2.924l0.858,2.101c0.75,1.851,1.478,2.632,2.445,2.632
				c0.863,0,0.978-0.845,1.559-2.297c1.313-3.305,2.045-3.791,2.045-4.961c0-0.799-0.176-1.014-0.902-1.014l-0.613-0.146
				l-1.053,0.665L33.571,25.85z"/>
			<path class="st2" d="M33.509,27.687h-0.855c-0.124,0-0.253,0.072-0.328,0.196l-0.129,0.328l0.325,1.58l0.263,1.376
				c0.145,0.759,0.425,1.055,0.99,1.055c0.644,0,1.043-0.441,1.115-1.25l0.131-1.448c0.086-0.959,0.129-1.464,0.129-1.5
				c0-0.142-0.072-0.286-0.196-0.403c-0.095-0.09-0.214-0.142-0.33-0.142l-0.062,0.008L33.509,27.687z"/>
		</g>
	</g>
	<g id="Book">
		<path d="M119.244,86.653c-0.574-1.402-1.949-2.391-3.558-2.391c-1.609,0-2.984,0.989-3.558,2.391h-5.611
			c-0.574-1.402-1.949-2.391-3.558-2.391c-1.609,0-2.984,0.989-3.558,2.391H93.79c-0.574-1.402-1.949-2.391-3.558-2.391
			s-2.984,0.989-3.558,2.391h-7.249v33.943h6.427v13.193h7.562v-13.061h19.089v13.061h7.555v-13.061h6.434V86.653H119.244z"/>
		<rect x="87.253" y="123.711" class="st2" width="3.912" height="5.033"/>
		<rect x="87.253" y="129.88" class="st2" width="3.912" height="1.59"/>
		<rect x="113.905" y="123.711" class="st2" width="3.912" height="5.033"/>
		<rect x="113.905" y="129.88" class="st2" width="3.912" height="1.59"/>
		<rect x="82.057" y="89.449" class="st1" width="41.803" height="1.554"/>
		<rect x="82.057" y="92.466" class="st1" width="41.803" height="25.633"/>
		<path class="st2" d="M88.44,88.372c0-0.989,0.802-1.792,1.792-1.792c0.99,0,1.792,0.802,1.792,1.792v4.709
			c0,0.989-0.802,1.792-1.792,1.792c-0.989,0-1.792-0.802-1.792-1.792V88.372z"/>
		<path class="st2" d="M101.168,88.372c0-0.989,0.802-1.792,1.792-1.792s1.792,0.802,1.792,1.792v4.709
			c0,0.989-0.802,1.792-1.792,1.792s-1.792-0.802-1.792-1.792V88.372z"/>
		<path class="st2" d="M113.895,88.372c0-0.989,0.802-1.792,1.792-1.792c0.989,0,1.792,0.802,1.792,1.792v4.709
			c0,0.989-0.802,1.792-1.792,1.792c-0.99,0-1.792-0.802-1.792-1.792V88.372z"/>
		<path class="st2" d="M92.758,105.549c2.696,3.373,6.096,5.041,10.299,5.041c3.892,0,6.572-1.394,9.72-5.041
			c-3.143-3.225-6.067-4.575-9.913-4.575C98.823,100.974,95.178,102.626,92.758,105.549"/>
		<path d="M102.768,102.496c-2.898,0-5.246,0.895-8.023,3.052c2.301,2.275,5.005,3.449,7.976,3.449c3.343,0,5.523-0.923,8.005-3.385
			C107.874,103.351,105.691,102.496,102.768,102.496z M102.66,106.342c-1.551,0-2.867-0.417-4.53-1.454
			c1.388-0.751,2.944-1.132,4.599-1.132c1.582,0,3.196,0.386,4.749,1.132C106.004,105.885,104.481,106.342,102.66,106.342z"/>
		<g>
			<g>
				<path class="st3" d="M119.366,115.826c-1.246,0-2.26-1.012-2.26-2.254c0-1.245,1.014-2.258,2.26-2.258
					c1.246,0,2.26,1.014,2.26,2.258C121.626,114.815,120.612,115.826,119.366,115.826z"/>
				<path class="st2" d="M119.366,111.853c-0.949,0-1.722,0.771-1.722,1.72c0,0.946,0.772,1.715,1.722,1.715
					c0.949,0,1.721-0.769,1.721-1.715C121.088,112.624,120.315,111.853,119.366,111.853z"/>
			</g>
			<g>
				<path class="st3" d="M86.621,115.826c-1.284,0-2.329-1.012-2.329-2.254c0-1.245,1.012-2.258,2.257-2.258
					c1.247,0,2.262,1.014,2.262,2.258C88.812,114.815,87.829,115.826,86.621,115.826z"/>
				<path class="st2" d="M86.549,111.853c-0.948,0-1.719,0.771-1.719,1.72c0,0.946,0.803,1.715,1.791,1.715
					c0.91,0,1.651-0.769,1.651-1.715C88.273,112.624,87.5,111.853,86.549,111.853z"/>
			</g>
			<g>
				<path class="st3" d="M86.549,100.25c-1.245,0-2.257-1.015-2.257-2.262c0-1.243,1.012-2.254,2.257-2.254
					c1.247,0,2.262,1.012,2.262,2.254C88.812,99.234,87.796,100.25,86.549,100.25z"/>
				<path class="st2" d="M86.549,96.272c-0.948,0-1.719,0.769-1.719,1.716c0,0.95,0.771,1.723,1.719,1.723
					c0.95,0,1.723-0.773,1.723-1.723C88.273,97.041,87.5,96.272,86.549,96.272z"/>
			</g>
			<g>
				<path class="st3" d="M119.366,100.25c-1.246,0-2.26-1.015-2.26-2.262c0-1.243,1.014-2.254,2.26-2.254
					c1.246,0,2.26,1.012,2.26,2.254C121.626,99.234,120.612,100.25,119.366,100.25z"/>
				<path class="st2" d="M119.366,96.272c-0.949,0-1.722,0.769-1.722,1.716c0,0.95,0.772,1.723,1.722,1.723
					c0.949,0,1.721-0.773,1.721-1.723C121.088,97.041,120.315,96.272,119.366,96.272z"/>
			</g>
		</g>
	</g>
</g>
</svg>
